<?xml version="1.0" encoding="utf-8"?>
<svg viewBox="-73.206 36.518 615.607 297.992" xmlns="http://www.w3.org/2000/svg">
  <defs>
    <linearGradient id="gradient-1" x1="61.7359" y1="250.214" x2="61.7359" y2="112.241" gradientUnits="userSpaceOnUse" gradientTransform="matrix(0.801379, 0, 0, 0.869247, -74.616188, 126.779053)">
      <stop stop-color="#001F7D"/>
      <stop offset="1" stop-color="#6560F0"/>
    </linearGradient>
    <linearGradient id="gradient-2" x1="0" y1="119.508" x2="337.546" y2="119.508" gradientUnits="userSpaceOnUse" gradientTransform="matrix(0.801379, 0, 0, 0.869247, -74.616188, 126.779053)">
      <stop stop-color="#6560F0"/>
      <stop offset="1" stop-color="#0029A6"/>
    </linearGradient>
    <linearGradient id="gradient-3" x1="605" y1="89" x2="616.984" y2="89" gradientUnits="userSpaceOnUse" gradientTransform="matrix(0.801379, 0, 0, 0.869247, -3.616198, 127.779053)">
      <stop stop-color="#6560F0"/>
      <stop offset="1" stop-color="#0029A6"/>
    </linearGradient>
    <clipPath id="clip0_1283_5216">
      <rect width="81.8889" height="77" fill="white"/>
    </clipPath>
  </defs>
  <path d="M -74.617 334.53 L -74.617 243.811 L 24.331 334.53 L -74.617 334.53 Z" fill="url(#gradient-1)" style="" transform="matrix(1, 0, 0, 1, 5.684341886080802e-14, 0)"/>
  <path d="M 195.886 126.78 L 24.331 334.53 L -74.617 334.53 L 96.938 126.78 L 195.886 126.78 Z" fill="url(#gradient-2)" style="" transform="matrix(1, 0, 0, 1, 5.684341886080802e-14, 0)"/>
  <path d="M 98.123 204.342 L -15.059 334.53 L -13.321 334.53 L 98.708 205.674 L 486.764 206.526 L 486.769 205.059 L 98.123 204.342 Z" fill="#DEDFEE" style="" transform="matrix(1, 0, 0, 1, 5.684341886080802e-14, 0)"/>
  <path d="M 486.025 210.358 C 488.681 210.358 490.834 208.024 490.834 205.143 C 490.834 202.263 488.681 199.927 486.025 199.927 C 483.369 199.927 481.217 202.263 481.217 205.143 C 481.217 208.024 483.369 210.358 486.025 210.358 Z" fill="url(#gradient-3)" style="" transform="matrix(1, 0, 0, 1, 5.684341886080802e-14, 0)"/>
  <text style="font-family: Arial, sans-serif; font-size: 21.4px; font-weight: 700; white-space: pre;" transform="matrix(1.9199280738830566, 0, 0, 2.5656270980834965, -365.5948540806002, -248.2198065552086)" x="302.39" y="169.271">Compliments</text>
  <g clip-path="url(#clip0_1283_5216)" transform="matrix(0.9219529628753663, 0, 0, 0.8905160427093506, 323.83963495253965, 65.46148779185845)" style="">
    <path d="M48.2229 24.6609C50.8781 24.6609 53.5526 24.6193 56.2295 24.6609C59.1526 24.7195 61.3998 26.5276 61.844 29.3545C62.0129 30.4369 61.6267 31.6072 61.5205 32.7409C61.4867 33.0976 61.4312 33.5106 61.564 33.8184C62.4474 35.8561 62.1119 37.9183 60.6347 39.592C60.3758 39.8935 60.2334 40.2797 60.234 40.6792C60.2983 41.4385 60.1995 42.2028 59.9446 42.9198C59.6896 43.6367 59.2844 44.2894 58.7567 44.8329C58.5369 45.0943 58.4185 45.4278 58.4236 45.7711C58.566 49.1747 56.3164 51.6351 52.9371 51.6351C45.649 51.6579 38.3618 51.6579 31.0753 51.6351C30.5766 51.6213 30.0924 51.8055 29.726 52.1482C29.2594 52.5172 28.6907 52.7299 28.0991 52.7565C26.0232 52.8274 23.945 52.803 21.8667 52.781C20.0757 52.759 18.9701 51.6302 18.8953 49.8075C18.8953 49.656 18.8953 49.5045 18.8953 49.3506C18.8953 42.98 18.8953 36.6095 18.8953 30.239C18.8953 27.8494 19.955 26.7914 22.3157 26.789C24.2105 26.789 26.1101 26.7499 28.005 26.8159C28.5989 26.8266 29.1766 27.0144 29.6656 27.3558C31.3553 28.6801 34.1336 28.1255 35.0895 26.2075C35.9681 24.441 36.9288 22.7111 37.7229 20.9079C38.0629 20.0696 38.2478 19.1751 38.2684 18.2691C38.3505 16.4122 38.2105 14.5455 38.3336 12.6935C38.3843 11.9361 38.6908 11.0198 39.2026 10.4945C40.7015 8.97234 43.1105 8.17093 45.3216 9.85682C48.3388 12.1535 49.6084 15.2174 49.2367 18.9484C49.0484 20.8615 48.585 22.6842 48.2229 24.6609ZM21.8015 49.8881C23.6867 49.8881 25.485 49.8881 27.2857 49.8759C27.3694 49.8701 27.4508 49.8451 27.5235 49.8028C27.5963 49.7604 27.6586 49.7019 27.7056 49.6315C28.116 48.8106 28.8232 48.7397 29.6174 48.7397C37.356 48.7544 45.093 48.7544 52.8285 48.7397C54.8512 48.7397 55.8771 47.4399 55.4112 45.4413C55.1698 44.4493 55.4691 43.6919 56.2633 43.1372C57.2698 42.4335 57.5426 41.5173 57.2288 40.3518C56.9271 39.2572 57.1564 38.6415 58.0495 37.9769C59.3264 37.0143 59.5316 35.9123 58.6288 34.5929C58.0181 33.7011 58.0495 32.8826 58.6288 31.9713C58.9149 31.5145 59.0811 30.9914 59.1116 30.4515C59.1695 28.795 57.8612 27.5855 56.0533 27.5782C52.2902 27.5611 48.5271 27.5782 44.764 27.5782C43.7067 27.5782 43.0743 27.0895 43.0188 26.2661C42.9633 25.4427 43.5908 24.8172 44.5129 24.6096C44.7664 24.5534 45.1236 24.3066 45.1719 24.0867C45.604 22.132 46.1374 20.1774 46.3281 18.2032C46.5695 15.7452 45.6209 13.6806 43.5643 12.2097C42.956 11.7773 42.4201 11.875 41.795 12.156C41.1698 12.437 41.1553 12.8719 41.1601 13.4143C41.1811 14.9682 41.1899 16.5222 41.1867 18.0761C41.225 19.8501 40.7942 21.6021 39.9388 23.1509C39.1157 24.5998 38.3891 26.1073 37.6626 27.6099C36.5667 29.87 34.7974 30.9768 32.3136 30.9206C31.7271 30.906 31.1405 30.9206 30.496 30.9206V32.0788C30.496 35.4603 30.496 38.8427 30.496 42.2259C30.5074 42.5899 30.4709 42.9539 30.3874 43.3082C30.3153 43.6261 30.1298 43.9058 29.8666 44.0938C29.6033 44.2818 29.2808 44.3649 28.9608 44.3271C28.6235 44.3266 28.2989 44.1963 28.0529 43.9627C27.8069 43.7291 27.6577 43.4096 27.6357 43.0688C27.6087 42.7658 27.5998 42.4615 27.6091 42.1574V29.8114H21.816L21.8015 49.8881ZM17.7657 62.8865C17.7657 66.4831 17.7657 70.0797 17.7657 73.6762C17.7657 75.3059 18.4584 76.381 19.7377 76.833C21.017 77.285 22.1515 76.8696 23.1605 75.648C26.757 71.2614 30.348 66.8724 33.9333 62.4809C34.1183 62.2332 34.3617 62.0363 34.6412 61.9083C34.9208 61.7802 35.2276 61.7251 35.5336 61.7479C47.9984 61.7675 60.4641 61.7716 72.9306 61.7602C77.833 61.7602 80.9492 58.6083 80.9516 53.6557V19.0754C80.967 18.8009 80.9605 18.5255 80.9323 18.252C80.8067 17.4629 80.3457 16.9937 79.5467 16.9449C79.1807 16.9279 78.8225 17.0559 78.5481 17.3018C78.2737 17.5476 78.1046 17.892 78.0768 18.2618C78.053 18.5658 78.0474 18.871 78.0599 19.1756V53.4651C78.0599 57.0177 76.293 58.8184 72.805 58.8184C60.0924 58.8184 47.3853 58.8111 34.6839 58.7964C34.2097 58.7702 33.7365 58.8637 33.3067 59.0684C32.877 59.2731 32.5042 59.5826 32.2219 59.9692C28.6181 64.4258 24.9805 68.8458 21.3357 73.278C21.1739 73.4759 20.9905 73.6591 20.655 74.0256V72.9334C20.655 68.8792 20.655 64.8257 20.655 60.7731C20.655 59.2631 20.2084 58.8184 18.7239 58.8184H7.97287C4.77459 58.8184 2.9039 56.9419 2.9039 53.729C2.9039 53.0595 2.9039 52.3876 2.9039 51.7181C2.88217 50.7164 2.31495 50.0689 1.47736 50.0567C0.639776 50.0445 0.0290854 50.6944 0.0290854 51.6839C0.0129934 52.5668 0.0129934 53.4505 0.0290854 54.3349C0.0482621 55.9163 0.565055 57.4502 1.50441 58.7139C2.44377 59.9776 3.75675 60.9052 5.25254 61.3619C6.15049 61.6112 7.07799 61.7346 8.00908 61.7284C11.2243 61.7724 14.4418 61.7455 17.7801 61.7455L17.7657 62.8865ZM8.24321 0.0273578C7.43366 0.00773595 6.62438 0.0765458 5.82941 0.232595C2.33907 1.03156 0.0363174 4.01973 0.0194208 7.7238C0.00654723 19.7303 0.00654723 31.7359 0.0194208 43.7407C0.00601805 43.9856 0.0173447 44.2312 0.0532175 44.4737C0.0921947 44.6761 0.173591 44.8676 0.291916 45.0354C0.41024 45.2031 0.562724 45.3433 0.73911 45.4463C0.915497 45.5494 1.11167 45.6129 1.31439 45.6327C1.51711 45.6525 1.72166 45.628 1.91424 45.561C2.72287 45.2605 2.91597 44.613 2.91356 43.8116C2.91356 39.5162 2.91356 35.2184 2.91356 30.9231C2.91356 23.212 2.91356 15.5025 2.91356 7.79466C2.91356 5.70074 3.94666 3.98797 5.74494 3.33561C6.54312 3.07196 7.37969 2.94721 8.21908 2.96667C29.7421 2.94712 51.2667 2.94223 72.793 2.952C73.003 2.952 73.213 2.952 73.423 2.952C76.2326 3.06195 78.055 4.96774 78.0743 7.81665C78.0743 8.9137 78.0502 10.0156 78.0888 11.1078C78.1202 11.9141 78.6054 12.393 79.3826 12.5151C80.0633 12.6226 80.8888 12.0998 80.9033 11.3863C80.9492 9.05785 81.3354 6.67318 80.2806 4.45709C78.7985 1.34919 76.2688 0.00781003 72.9185 0.0126967C62.1095 0.0289854 51.3021 0.0289854 40.4963 0.0126967C29.7421 0.0094389 18.991 0.0102539 8.24321 0.0151405V0.0273578Z" fill="black"/>
  </g>
</svg>