<?xml version="1.0" encoding="utf-8"?>
<svg viewBox="0 48.623 542.401 285.887" xmlns="http://www.w3.org/2000/svg">
  <defs>
    <clipPath id="clip0_1283_5214">
      <rect width="72" height="77" fill="white"/>
    </clipPath>
    <linearGradient id="paint0_linear_1283_5195" x1="443.264" y1="250.214" x2="443.264" y2="112.241" gradientUnits="userSpaceOnUse" gradientTransform="matrix(1, 0, 0, 1, 37.317726, 95.097336)">
      <stop stop-color="#001F7D"/>
      <stop offset="1" stop-color="#6560F0"/>
    </linearGradient>
    <linearGradient id="paint1_linear_1283_5195" x1="505" y1="119.508" x2="167.454" y2="119.508" gradientUnits="userSpaceOnUse" gradientTransform="matrix(1, 0, 0, 1, 37.317726, 95.097336)">
      <stop stop-color="#6560F0"/>
      <stop offset="1" stop-color="#0029A6"/>
    </linearGradient>
    <linearGradient id="paint2_linear_1283_5195" x1="16" y1="89" x2="4.01558" y2="89" gradientUnits="userSpaceOnUse" gradientTransform="matrix(1, 0, 0, 1, 37.317726, 95.097336)">
      <stop stop-color="#6560F0"/>
      <stop offset="1" stop-color="#0029A6"/>
    </linearGradient>
    <clipPath id="clip0_1283_5207">
      <rect width="84" height="77" fill="white"/>
    </clipPath>
  </defs>
  <g clip-path="url(#clip0_1283_5214)" transform="matrix(1, 0, 0, 1, 353.8114981921239, 60.09735196973905)"/>
  <path d="M 542.318 334.097 L 542.318 229.732 L 418.846 334.097 L 542.318 334.097 Z" fill="url(#paint0_linear_1283_5195)"/>
  <path d="M 204.772 95.097 L 418.846 334.097 L 542.318 334.097 L 328.244 95.097 L 204.772 95.097 Z" fill="url(#paint1_linear_1283_5195)"/>
  <path d="M 333.717 184 L 467.999 334.097 L 465.938 334.097 L 333.024 185.534 L 51.307 185.534 L 51.307 184 L 333.717 184 Z" fill="#DEDFEE"/>
  <path d="M 47.318 190.097 C 44.004 190.097 41.318 187.411 41.318 184.097 C 41.318 180.784 44.004 178.097 47.318 178.097 C 50.631 178.097 53.318 180.784 53.318 184.097 C 53.318 187.411 50.631 190.097 47.318 190.097 Z" fill="url(#paint2_linear_1283_5195)"/>
  <path d="M 93.814 126.393 L 93.814 161.097 L 88.126 161.097 L 88.126 138.681 C 88.126 137.785 88.174 136.817 88.27 135.777 L 77.782 155.481 C 77.286 156.425 76.526 156.897 75.502 156.897 L 74.59 156.897 C 73.566 156.897 72.806 156.425 72.31 155.481 L 61.702 135.705 C 61.75 136.233 61.79 136.753 61.822 137.265 C 61.854 137.777 61.87 138.249 61.87 138.681 L 61.87 161.097 L 56.182 161.097 L 56.182 126.393 L 61.054 126.393 C 61.342 126.393 61.59 126.401 61.798 126.417 C 62.006 126.433 62.19 126.473 62.35 126.537 C 62.526 126.601 62.678 126.705 62.806 126.849 C 62.95 126.993 63.086 127.185 63.214 127.425 L 73.606 146.697 C 73.878 147.209 74.126 147.737 74.35 148.281 C 74.59 148.825 74.822 149.385 75.046 149.961 C 75.27 149.369 75.502 148.801 75.742 148.257 C 75.982 147.697 76.238 147.161 76.51 146.649 L 86.758 127.425 C 86.886 127.185 87.022 126.993 87.166 126.849 C 87.31 126.705 87.462 126.601 87.622 126.537 C 87.798 126.473 87.99 126.433 88.198 126.417 C 88.406 126.401 88.654 126.393 88.942 126.393 L 93.814 126.393 Z M 105.957 136.473 L 105.957 161.097 L 100.005 161.097 L 100.005 136.473 L 105.957 136.473 Z M 106.773 129.297 C 106.773 129.809 106.669 130.289 106.461 130.737 C 106.253 131.185 105.973 131.577 105.621 131.913 C 105.285 132.249 104.885 132.521 104.421 132.729 C 103.957 132.921 103.461 133.017 102.933 133.017 C 102.421 133.017 101.933 132.921 101.469 132.729 C 101.021 132.521 100.629 132.249 100.293 131.913 C 99.957 131.577 99.685 131.185 99.477 130.737 C 99.285 130.289 99.189 129.809 99.189 129.297 C 99.189 128.769 99.285 128.273 99.477 127.809 C 99.685 127.345 99.957 126.945 100.293 126.609 C 100.629 126.273 101.021 126.009 101.469 125.817 C 101.933 125.609 102.421 125.505 102.933 125.505 C 103.461 125.505 103.957 125.609 104.421 125.817 C 104.885 126.009 105.285 126.273 105.621 126.609 C 105.973 126.945 106.253 127.345 106.461 127.809 C 106.669 128.273 106.773 128.769 106.773 129.297 Z M 126.544 141.273 C 126.384 141.529 126.216 141.713 126.04 141.825 C 125.864 141.921 125.64 141.969 125.368 141.969 C 125.08 141.969 124.768 141.889 124.432 141.729 C 124.112 141.569 123.736 141.393 123.304 141.201 C 122.872 140.993 122.376 140.809 121.816 140.649 C 121.272 140.489 120.624 140.409 119.872 140.409 C 118.704 140.409 117.784 140.657 117.112 141.153 C 116.456 141.649 116.128 142.297 116.128 143.097 C 116.128 143.625 116.296 144.073 116.632 144.441 C 116.984 144.793 117.44 145.105 118 145.377 C 118.576 145.649 119.224 145.897 119.944 146.121 C 120.664 146.329 121.392 146.561 122.128 146.817 C 122.88 147.073 123.616 147.369 124.336 147.705 C 125.056 148.025 125.696 148.441 126.256 148.953 C 126.832 149.449 127.288 150.049 127.624 150.753 C 127.976 151.457 128.152 152.305 128.152 153.297 C 128.152 154.481 127.936 155.577 127.504 156.585 C 127.088 157.577 126.464 158.441 125.632 159.177 C 124.8 159.897 123.768 160.465 122.536 160.881 C 121.32 161.281 119.912 161.481 118.312 161.481 C 117.464 161.481 116.632 161.401 115.816 161.241 C 115.016 161.097 114.24 160.889 113.488 160.617 C 112.752 160.345 112.064 160.025 111.424 159.657 C 110.8 159.289 110.248 158.889 109.768 158.457 L 111.136 156.201 C 111.312 155.929 111.52 155.721 111.76 155.577 C 112 155.433 112.304 155.361 112.672 155.361 C 113.04 155.361 113.384 155.465 113.704 155.673 C 114.04 155.881 114.424 156.105 114.856 156.345 C 115.288 156.585 115.792 156.809 116.368 157.017 C 116.96 157.225 117.704 157.329 118.6 157.329 C 119.304 157.329 119.904 157.249 120.4 157.089 C 120.912 156.913 121.328 156.689 121.648 156.417 C 121.984 156.145 122.224 155.833 122.368 155.481 C 122.528 155.113 122.608 154.737 122.608 154.353 C 122.608 153.777 122.432 153.305 122.08 152.937 C 121.744 152.569 121.288 152.249 120.712 151.977 C 120.152 151.705 119.504 151.465 118.768 151.257 C 118.048 151.033 117.304 150.793 116.536 150.537 C 115.784 150.281 115.04 149.985 114.304 149.649 C 113.584 149.297 112.936 148.857 112.36 148.329 C 111.8 147.801 111.344 147.153 110.992 146.385 C 110.656 145.617 110.488 144.689 110.488 143.601 C 110.488 142.593 110.688 141.633 111.088 140.721 C 111.488 139.809 112.072 139.017 112.84 138.345 C 113.624 137.657 114.592 137.113 115.744 136.713 C 116.912 136.297 118.256 136.089 119.776 136.089 C 121.472 136.089 123.016 136.369 124.408 136.929 C 125.8 137.489 126.96 138.225 127.888 139.137 L 126.544 141.273 Z M 147.158 141.273 C 146.998 141.529 146.83 141.713 146.654 141.825 C 146.478 141.921 146.254 141.969 145.982 141.969 C 145.694 141.969 145.382 141.889 145.046 141.729 C 144.726 141.569 144.35 141.393 143.918 141.201 C 143.486 140.993 142.99 140.809 142.43 140.649 C 141.886 140.489 141.238 140.409 140.486 140.409 C 139.318 140.409 138.398 140.657 137.726 141.153 C 137.07 141.649 136.742 142.297 136.742 143.097 C 136.742 143.625 136.91 144.073 137.246 144.441 C 137.598 144.793 138.054 145.105 138.614 145.377 C 139.19 145.649 139.838 145.897 140.558 146.121 C 141.278 146.329 142.006 146.561 142.742 146.817 C 143.494 147.073 144.23 147.369 144.95 147.705 C 145.67 148.025 146.31 148.441 146.87 148.953 C 147.446 149.449 147.902 150.049 148.238 150.753 C 148.59 151.457 148.766 152.305 148.766 153.297 C 148.766 154.481 148.55 155.577 148.118 156.585 C 147.702 157.577 147.078 158.441 146.246 159.177 C 145.414 159.897 144.382 160.465 143.15 160.881 C 141.934 161.281 140.526 161.481 138.926 161.481 C 138.078 161.481 137.246 161.401 136.43 161.241 C 135.63 161.097 134.854 160.889 134.102 160.617 C 133.366 160.345 132.678 160.025 132.038 159.657 C 131.414 159.289 130.862 158.889 130.382 158.457 L 131.75 156.201 C 131.926 155.929 132.134 155.721 132.374 155.577 C 132.614 155.433 132.918 155.361 133.286 155.361 C 133.654 155.361 133.998 155.465 134.318 155.673 C 134.654 155.881 135.038 156.105 135.47 156.345 C 135.902 156.585 136.406 156.809 136.982 157.017 C 137.574 157.225 138.318 157.329 139.214 157.329 C 139.918 157.329 140.518 157.249 141.014 157.089 C 141.526 156.913 141.942 156.689 142.262 156.417 C 142.598 156.145 142.838 155.833 142.982 155.481 C 143.142 155.113 143.222 154.737 143.222 154.353 C 143.222 153.777 143.046 153.305 142.694 152.937 C 142.358 152.569 141.902 152.249 141.326 151.977 C 140.766 151.705 140.118 151.465 139.382 151.257 C 138.662 151.033 137.918 150.793 137.15 150.537 C 136.398 150.281 135.654 149.985 134.918 149.649 C 134.198 149.297 133.55 148.857 132.974 148.329 C 132.414 147.801 131.958 147.153 131.606 146.385 C 131.27 145.617 131.102 144.689 131.102 143.601 C 131.102 142.593 131.302 141.633 131.702 140.721 C 132.102 139.809 132.686 139.017 133.454 138.345 C 134.238 137.657 135.206 137.113 136.358 136.713 C 137.526 136.297 138.87 136.089 140.39 136.089 C 142.086 136.089 143.63 136.369 145.022 136.929 C 146.414 137.489 147.574 138.225 148.502 139.137 L 147.158 141.273 Z M 158.892 136.473 L 158.892 161.097 L 152.94 161.097 L 152.94 136.473 L 158.892 136.473 Z M 159.708 129.297 C 159.708 129.809 159.604 130.289 159.396 130.737 C 159.188 131.185 158.908 131.577 158.556 131.913 C 158.22 132.249 157.82 132.521 157.356 132.729 C 156.892 132.921 156.396 133.017 155.868 133.017 C 155.356 133.017 154.868 132.921 154.404 132.729 C 153.956 132.521 153.564 132.249 153.228 131.913 C 152.892 131.577 152.62 131.185 152.412 130.737 C 152.22 130.289 152.124 129.809 152.124 129.297 C 152.124 128.769 152.22 128.273 152.412 127.809 C 152.62 127.345 152.892 126.945 153.228 126.609 C 153.564 126.273 153.956 126.009 154.404 125.817 C 154.868 125.609 155.356 125.505 155.868 125.505 C 156.396 125.505 156.892 125.609 157.356 125.817 C 157.82 126.009 158.22 126.273 158.556 126.609 C 158.908 126.945 159.188 127.345 159.396 127.809 C 159.604 128.273 159.708 128.769 159.708 129.297 Z M 175.351 136.089 C 177.175 136.089 178.831 136.385 180.319 136.977 C 181.823 137.569 183.103 138.409 184.159 139.497 C 185.231 140.585 186.055 141.913 186.631 143.481 C 187.207 145.049 187.495 146.801 187.495 148.737 C 187.495 150.689 187.207 152.449 186.631 154.017 C 186.055 155.585 185.231 156.921 184.159 158.025 C 183.103 159.129 181.823 159.977 180.319 160.569 C 178.831 161.161 177.175 161.457 175.351 161.457 C 173.511 161.457 171.839 161.161 170.335 160.569 C 168.831 159.977 167.543 159.129 166.471 158.025 C 165.415 156.921 164.591 155.585 163.999 154.017 C 163.423 152.449 163.135 150.689 163.135 148.737 C 163.135 146.801 163.423 145.049 163.999 143.481 C 164.591 141.913 165.415 140.585 166.471 139.497 C 167.543 138.409 168.831 137.569 170.335 136.977 C 171.839 136.385 173.511 136.089 175.351 136.089 Z M 175.351 156.897 C 177.399 156.897 178.911 156.209 179.887 154.833 C 180.879 153.457 181.375 151.441 181.375 148.785 C 181.375 146.129 180.879 144.105 179.887 142.713 C 178.911 141.321 177.399 140.625 175.351 140.625 C 173.271 140.625 171.727 141.329 170.719 142.737 C 169.727 144.129 169.231 146.145 169.231 148.785 C 169.231 151.425 169.727 153.441 170.719 154.833 C 171.727 156.209 173.271 156.897 175.351 156.897 Z M 197.082 139.497 C 197.578 139.001 198.098 138.545 198.642 138.129 C 199.202 137.697 199.786 137.337 200.394 137.049 C 201.018 136.745 201.682 136.513 202.386 136.353 C 203.09 136.177 203.858 136.089 204.69 136.089 C 206.034 136.089 207.226 136.321 208.266 136.785 C 209.306 137.233 210.17 137.873 210.858 138.705 C 211.562 139.521 212.09 140.505 212.442 141.657 C 212.81 142.793 212.994 144.049 212.994 145.425 L 212.994 161.097 L 207.066 161.097 L 207.066 145.425 C 207.066 143.921 206.722 142.761 206.034 141.945 C 205.346 141.113 204.298 140.697 202.89 140.697 C 201.866 140.697 200.906 140.929 200.01 141.393 C 199.114 141.857 198.266 142.489 197.466 143.289 L 197.466 161.097 L 191.538 161.097 L 191.538 136.473 L 195.162 136.473 C 195.93 136.473 196.434 136.833 196.674 137.553 L 197.082 139.497 Z" fill="#212844"/>
  <g clip-path="url(#clip0_1283_5207)" transform="matrix(0.7841240167617799, 0, 0, 0.7319969534873962, 101.9337631156111, 50.71594695323627)" style="">
    <path d="M42.7556 25.9124V18.083C42.7513 16.9346 42.2957 15.8348 41.4885 15.0243C40.6814 14.2138 39.5885 13.7588 38.4491 13.7588H17.4858C16.3479 13.7588 15.2567 14.2144 14.4522 15.0253C13.6476 15.8363 13.1956 16.9361 13.1956 18.083V25.9124C13.1956 27.0592 13.6476 28.1591 14.4522 28.97C15.2567 29.781 16.3479 30.2366 17.4858 30.2366H38.4491C39.5885 30.2366 40.6814 29.7815 41.4885 28.971C42.2957 28.1606 42.7513 27.0607 42.7556 25.9124ZM15.8444 25.9124V18.083C15.8444 17.6486 16.0157 17.2319 16.3204 16.9248C16.6252 16.6176 17.0385 16.445 17.4695 16.445H38.433C38.864 16.445 39.2773 16.6176 39.5821 16.9248C39.8868 17.2319 40.0581 17.6486 40.0581 18.083V25.9124C40.0581 26.3468 39.8868 26.7634 39.5821 27.0706C39.2773 27.3778 38.864 27.5503 38.433 27.5503H17.4695C17.0385 27.5503 16.6252 27.3778 16.3204 27.0706C16.0157 26.7634 15.8444 26.3468 15.8444 25.9124Z" fill="black"/>
    <path d="M31.2664 50.1869H23.8398C23.6536 50.1661 23.4651 50.1851 23.2867 50.2427C23.1082 50.3003 22.9437 50.3951 22.8041 50.5211C22.6645 50.6471 22.5528 50.8013 22.4763 50.9738C22.3998 51.1462 22.3604 51.333 22.3604 51.5218C22.3604 51.7107 22.3998 51.8974 22.4763 52.0699C22.5528 52.2423 22.6645 52.3966 22.8041 52.5226C22.9437 52.6485 23.1082 52.7434 23.2867 52.801C23.4651 52.8586 23.6536 52.8776 23.8398 52.8568H31.2664C31.4527 52.8776 31.6412 52.8586 31.8197 52.801C31.9981 52.7434 32.1625 52.6485 32.3021 52.5226C32.4417 52.3966 32.5535 52.2423 32.6299 52.0699C32.7064 51.8974 32.7459 51.7107 32.7459 51.5218C32.7459 51.333 32.7064 51.1462 32.6299 50.9738C32.5535 50.8013 32.4417 50.6471 32.3021 50.5211C32.1625 50.3951 31.9981 50.3003 31.8197 50.2427C31.6412 50.1851 31.4527 50.1661 31.2664 50.1869Z" fill="black"/>
    <path d="M31.2665 55.9199H23.8399C23.4865 55.9199 23.1475 56.0614 22.8976 56.3133C22.6477 56.5652 22.5073 56.9068 22.5073 57.2631C22.5073 57.6193 22.6477 57.9609 22.8976 58.2128C23.1475 58.4647 23.4865 58.6062 23.8399 58.6062H31.2665C31.4415 58.6062 31.6147 58.5714 31.7764 58.5039C31.9381 58.4364 32.085 58.3375 32.2088 58.2128C32.3325 58.0881 32.4306 57.94 32.4976 57.7771C32.5646 57.6141 32.5991 57.4394 32.5991 57.2631C32.5991 57.0867 32.5646 56.912 32.4976 56.749C32.4306 56.5861 32.3325 56.438 32.2088 56.3133C32.085 56.1886 31.9381 56.0897 31.7764 56.0222C31.6147 55.9547 31.4415 55.9199 31.2665 55.9199Z" fill="black"/>
    <path d="M79.6935 16.1338H57.5437C56.9863 16.1376 56.4347 16.2488 55.9186 16.4614V15.1019C55.9208 14.9263 55.8884 14.752 55.8232 14.5892C55.758 14.4263 55.6614 14.2781 55.539 14.1532C55.4165 14.0282 55.2706 13.929 55.1099 13.8613C54.9491 13.7936 54.7766 13.7588 54.6023 13.7588C54.2489 13.7588 53.91 13.9003 53.6601 14.1522C53.4102 14.4041 53.2698 14.7457 53.2698 15.1019V46.9109C53.013 47.0144 52.7634 47.1347 52.5223 47.2712C52.2509 47.4274 51.9406 47.5013 51.6285 47.4842C49.1148 47.0768 46.7844 45.9053 44.9494 44.1264C44.3161 43.6022 43.5512 43.265 42.7394 43.1523C41.9277 43.0395 41.1008 43.1556 40.3505 43.4876C39.5665 42.6928 38.6174 42.0831 37.5716 41.7022C41.9937 39.5234 45.5529 35.8987 47.669 31.4194C49.7851 26.9401 50.3332 21.8703 49.2237 17.0367C48.1143 12.2032 45.4129 7.89106 41.5601 4.80352C37.7073 1.71597 32.9302 0.0351562 28.008 0.0351562C23.0858 0.0351562 18.3088 1.71597 14.456 4.80352C10.6031 7.89106 7.90184 12.2032 6.79243 17.0367C5.68302 21.8703 6.23102 26.9401 8.34708 31.4194C10.4631 35.8987 14.0224 39.5234 18.4445 41.7022C17.7525 41.9472 17.1006 42.295 16.5106 42.7341C16.0461 42.5692 15.5569 42.486 15.0644 42.4884C14.6184 42.4883 14.1749 42.5546 13.7481 42.685C5.1677 45.3876 0.0324707 50.5144 0.0324707 56.3946C0.0324707 57.5762 0.498106 58.7094 1.32705 59.545C2.156 60.3805 3.28031 60.8498 4.45262 60.8498C5.62493 60.8498 6.74924 60.3805 7.57819 59.545C8.40714 58.7094 8.87287 57.5762 8.87287 56.3946C8.87287 55.33 10.4979 53.7248 13.3743 52.3653V72.6594C13.3828 73.8021 13.8381 74.8953 14.6413 75.7018C15.4444 76.5083 16.5308 76.963 17.6645 76.9673H19.8096C20.9489 76.9673 22.0418 76.5122 22.8489 75.7018C23.6561 74.8913 24.1117 73.7914 24.116 72.6431V67.4835H31.8676V72.6431C31.8719 73.7914 32.3275 74.8913 33.1347 75.7018C33.9418 76.5122 35.0347 76.9673 36.1741 76.9673H38.3192C39.457 76.9673 40.5482 76.5117 41.3528 75.7008C42.1574 74.8898 42.6093 73.7899 42.6093 72.6431V53.4135C45.2879 55.2339 48.4166 56.2662 51.6447 56.3946C52.1885 56.3992 52.7319 56.3609 53.2698 56.28V75.6569C53.2698 76.0131 53.4102 76.3547 53.6601 76.6066C53.91 76.8585 54.2489 77 54.6023 77C54.7766 77 54.9491 76.9652 55.1099 76.8975C55.2706 76.8298 55.4165 76.7306 55.539 76.6057C55.6614 76.4807 55.758 76.3325 55.8232 76.1696C55.8884 76.0068 55.9208 75.8325 55.9186 75.6569V55.5265C56.3324 55.3453 56.7341 55.1374 57.1213 54.9041C58.1206 54.2869 58.837 53.2963 59.114 52.1485C59.3911 51.0007 59.2063 49.7891 58.6001 48.7782C58.0052 47.7761 57.0413 47.0519 55.9186 46.7635V35.822C56.4347 36.0346 56.9863 36.1458 57.5437 36.1496H61.9965C62.1827 36.1704 62.3712 36.1514 62.5497 36.0938C62.7281 36.0362 62.8926 35.9413 63.0322 35.8154C63.1718 35.6894 63.2835 35.5351 63.3599 35.3627C63.4364 35.1903 63.476 35.0035 63.476 34.8146C63.476 34.6258 63.4364 34.439 63.3599 34.2666C63.2835 34.0941 63.1718 33.9399 63.0322 33.8139C62.8926 33.6879 62.7281 33.5931 62.5497 33.5355C62.3712 33.4779 62.1827 33.4589 61.9965 33.4797H57.5437C57.1127 33.4797 56.6994 33.3071 56.3946 33C56.0899 32.6928 55.9186 32.2762 55.9186 31.8418V20.458C55.9186 20.0236 56.0899 19.607 56.3946 19.2998C56.6994 18.9926 57.1127 18.8201 57.5437 18.8201H79.6935C80.1245 18.8201 80.5379 18.9926 80.8426 19.2998C81.1474 19.607 81.3185 20.0236 81.3185 20.458V31.8254C81.3185 32.2598 81.1474 32.6764 80.8426 32.9836C80.5379 33.2908 80.1245 33.4633 79.6935 33.4633H66.4166C66.066 33.4633 65.7296 33.6026 65.4801 33.8509C65.2307 34.0993 65.0883 34.4367 65.0841 34.7901C65.0841 34.9664 65.1186 35.1411 65.1855 35.3041C65.2525 35.467 65.3506 35.6151 65.4744 35.7398C65.5981 35.8645 65.7451 35.9635 65.9067 36.031C66.0684 36.0984 66.2417 36.1332 66.4166 36.1332H79.7747C80.914 36.1332 82.007 35.6781 82.8142 34.8677C83.6213 34.0572 84.0769 32.9573 84.0812 31.809V20.458C84.0791 19.8824 83.9635 19.313 83.7411 18.7829C83.5186 18.2527 83.1938 17.7725 82.7855 17.3701C82.3772 16.9677 81.8935 16.6512 81.3627 16.4389C80.8318 16.2267 80.2644 16.123 79.6935 16.1338ZM8.82407 21.9649C8.82407 18.1487 9.94681 14.4182 12.0503 11.2452C14.1538 8.07212 17.1436 5.59902 20.6416 4.13863C24.1395 2.67823 27.9887 2.29613 31.7021 3.04063C35.4156 3.78513 38.8266 5.62282 41.5039 8.32128C44.1811 11.0197 46.0043 14.4578 46.743 18.2007C47.4816 21.9435 47.1025 25.8231 45.6536 29.3488C44.2047 32.8745 41.7511 35.888 38.603 38.0082C35.4548 40.1283 31.7537 41.26 27.9675 41.26C22.893 41.2513 18.0287 39.2157 14.4405 35.599C10.8523 31.9824 8.83266 27.0796 8.82407 21.9649ZM15.5519 48.6635L14.9181 48.8764C9.55535 50.7109 6.25643 53.5446 6.25643 56.3946C6.25643 56.8681 6.06987 57.3223 5.73768 57.6571C5.40549 57.9919 4.95494 58.18 4.48515 58.18C4.01537 58.18 3.56481 57.9919 3.23263 57.6571C2.90044 57.3223 2.71378 56.8681 2.71378 56.3946C2.71378 51.7428 7.15021 47.5661 14.5768 45.2566C14.7434 45.1963 14.9199 45.1685 15.0968 45.1747C15.4091 45.1746 15.7164 45.2535 15.9906 45.404C16.1949 45.5309 16.3718 45.698 16.5106 45.8954C16.5413 45.9367 16.5686 45.9805 16.592 46.0264C16.5966 46.059 16.5966 46.0921 16.592 46.1247V46.2885C16.6415 46.4589 16.6688 46.6351 16.6732 46.8126C16.6732 46.8126 16.6732 46.9436 16.6732 47.0092C16.6415 47.2951 16.5423 47.5692 16.384 47.8085C16.2256 48.0479 16.0128 48.2456 15.7632 48.385L15.5519 48.6635ZM21.4346 72.6758C21.4346 73.1103 21.2634 73.5269 20.9587 73.834C20.6539 74.1412 20.2406 74.3138 19.8096 74.3138H17.6645C17.2335 74.3138 16.8202 74.1412 16.5154 73.834C16.2106 73.5269 16.0394 73.1103 16.0394 72.6758V67.5163H21.4672L21.4346 72.6758ZM39.9442 72.6758C39.9442 73.1103 39.773 73.5269 39.4683 73.834C39.1635 74.1412 38.7502 74.3138 38.3192 74.3138H36.1741C35.7431 74.3138 35.3298 74.1412 35.025 73.834C34.7202 73.5269 34.549 73.1103 34.549 72.6758V67.5163H39.993L39.9442 72.6758ZM39.9442 64.8465H16.0394V51.3334L16.3807 51.2187C17.2812 50.9356 18.0682 50.3695 18.6267 49.6032C19.1851 48.837 19.4857 47.9108 19.4845 46.96C19.4835 46.516 19.4178 46.0745 19.2895 45.6497L19.1758 45.3385V45.1747V45.0436C19.1758 44.9617 19.0945 44.8962 19.062 44.8143C19.0137 44.7234 18.9595 44.6358 18.8995 44.5523C19.6047 44.193 20.3844 44.0078 21.1746 44.0117H35.1665C36.4072 44.0033 37.6044 44.4719 38.5142 45.3221L38.3516 45.6005L38.2378 45.8954C38.1911 45.9825 38.1582 46.0765 38.1403 46.1738C38.1058 46.2699 38.0786 46.3684 38.0591 46.4687C38.0499 46.5722 38.0499 46.6763 38.0591 46.7799C38.0591 46.8781 38.0591 46.9764 38.0591 47.0911C38.051 47.1947 38.051 47.2987 38.0591 47.4023C38.051 47.5113 38.051 47.6208 38.0591 47.7299C38.1172 48.316 38.2909 48.8845 38.5699 49.4021C38.849 49.9196 39.2278 50.3757 39.6842 50.7437L40.2854 51.2187V64.5188L39.9442 64.8465ZM56.2925 50.1049C56.4139 50.3036 56.495 50.5246 56.5313 50.7551C56.5676 50.9856 56.5583 51.2211 56.5039 51.4479C56.4496 51.6748 56.3512 51.8885 56.2145 52.0769C56.0778 52.2653 55.9054 52.4245 55.7074 52.5454C54.477 53.2919 53.0645 53.6776 51.6285 53.6592C48.0275 53.3805 44.6101 51.9453 41.8781 49.5644L41.6506 49.3842L41.0168 48.8764C40.6594 48.569 40.4326 48.1352 40.383 47.6643V47.5006C40.3844 47.0927 40.5282 46.6984 40.7892 46.3867V46.2721L40.903 46.1738C41.2319 45.9327 41.6349 45.8166 42.0406 45.8462C42.4498 45.8493 42.8456 45.9939 43.1619 46.2557C46.2332 48.8109 49.2072 50.2196 51.531 50.2196C52.3292 50.2411 53.1172 50.0368 53.8061 49.6299C54.0063 49.5125 54.227 49.4346 54.4561 49.4006H54.6998C55.0095 49.3721 55.3212 49.4286 55.6015 49.5641C55.8819 49.6996 56.1207 49.9092 56.2925 50.1704V50.1049Z" fill="black"/>
  </g>
</svg>