<?xml version="1.0" encoding="utf-8"?>
<svg viewBox="66.651 122.854 543.377 264.361" xmlns="http://www.w3.org/2000/svg">
  <defs>
    <linearGradient id="paint0_linear_1283_5185" x1="61.7359" y1="250.214" x2="61.7359" y2="112.241" gradientUnits="userSpaceOnUse" gradientTransform="matrix(0.801379, 0, 0, 0.869247, 67.200009, 179.488122)">
      <stop stop-color="#001F7D"/>
      <stop offset="1" stop-color="#6560F0"/>
    </linearGradient>
    <linearGradient id="paint1_linear_1283_5185" x1="0" y1="119.508" x2="337.546" y2="119.508" gradientUnits="userSpaceOnUse" gradientTransform="matrix(0.801379, 0, 0, 0.869247, 67.200009, 179.488122)">
      <stop stop-color="#6560F0"/>
      <stop offset="1" stop-color="#0029A6"/>
    </linearGradient>
    <linearGradient id="paint2_linear_1283_5185" x1="605" y1="89" x2="616.984" y2="89" gradientUnits="userSpaceOnUse" gradientTransform="matrix(0.801379, 0, 0, 0.869247, 114.200009, 180.488122)">
      <stop stop-color="#6560F0"/>
      <stop offset="1" stop-color="#0029A6"/>
    </linearGradient>
    <clipPath id="clip0_1283_5212">
      <rect width="77" height="77" fill="white"/>
    </clipPath>
  </defs>
  <path d="M 67.199 387.239 L 67.199 296.52 L 166.147 387.239 L 67.199 387.239 Z" fill="url(#paint0_linear_1283_5185)" style=""/>
  <path d="M 337.702 179.489 L 166.147 387.239 L 67.199 387.239 L 238.754 179.489 L 337.702 179.489 Z" fill="url(#paint1_linear_1283_5185)" style=""/>
  <path d="M 234.367 256.767 L 126.757 387.239 L 128.409 387.239 L 234.923 258.101 L 603.875 258.956 L 603.879 257.485 L 234.367 256.767 Z" fill="#DEDFEE" style=""/>
  <path d="M 603.841 263.067 C 606.497 263.067 608.65 260.733 608.65 257.852 C 608.65 254.972 606.497 252.636 603.841 252.636 C 601.185 252.636 599.033 254.972 599.033 257.852 C 599.033 260.733 601.185 263.067 603.841 263.067 Z" fill="url(#paint2_linear_1283_5185)" style=""/>
  <text style="font-family: Arial, sans-serif; font-size: 21.4px; font-weight: 700; white-space: pre;" transform="matrix(2.0050671100616455, 0, 0, 2.565627098083496, -259.6069374621948, -197.86033925205973)" x="302.39" y="169.271">Momentum</text>
  <g clip-path="url(#clip0_1283_5212)" transform="matrix(0.8020739555358888, 0, 0, 0.8020679950714112, 427.14792506617175, 123.74135773988598)" style="">
    <path d="M-0.000186748 32.7868C0.401524 32.0274 1.0302 31.7241 1.89187 31.698C3.11709 31.6578 4.3383 31.4971 5.56352 31.4167C5.99134 31.3886 6.22433 31.2701 6.3328 30.8C7.1128 27.4026 8.45855 24.1606 10.3137 21.2097C10.5729 20.8079 10.4805 20.5568 10.2033 20.2394C9.33022 19.2416 8.47324 18.2298 7.63233 17.204C6.90925 16.3381 6.93937 15.635 7.7448 14.8255C10.0948 12.463 12.4509 10.106 14.8129 7.75424C15.6485 6.92257 16.3434 6.89846 17.2493 7.65581C18.2536 8.48949 19.2478 9.32719 20.224 10.189C20.5714 10.4964 20.8265 10.5626 21.2584 10.2935C24.1649 8.46764 27.3554 7.139 30.6986 6.36209C31.2108 6.24357 31.3935 6.03063 31.4217 5.51837C31.494 4.19251 31.6225 2.87068 31.727 1.54683C31.8113 0.542395 32.3777 0.0100444 33.3961 0.00602661C36.8053 -0.00200887 40.2131 -0.00200887 43.6196 0.00602661C44.6239 0.00602661 45.1863 0.556458 45.2707 1.56692C45.3791 2.88876 45.4956 4.2126 45.58 5.53645C45.6081 6.0005 45.7467 6.22549 46.2468 6.33999C49.593 7.11625 52.7885 8.43837 55.7051 10.2533C56.143 10.5265 56.4141 10.5245 56.8018 10.1749C57.786 9.285 58.8103 8.43525 59.8307 7.5875C60.6341 6.91855 61.3632 6.9306 62.1003 7.65982C64.52 10.0584 66.9303 12.4691 69.3311 14.8918C70.0602 15.627 70.0763 16.3643 69.4115 17.1638C68.5478 18.2044 67.6741 19.239 66.7783 20.2514C66.483 20.5869 66.4529 20.832 66.6999 21.2257C68.5349 24.1593 69.8706 27.377 70.6528 30.7478C70.7693 31.242 70.9902 31.3886 71.4562 31.4187C72.7819 31.4991 74.1035 31.6196 75.4271 31.7261C76.4475 31.8105 76.9878 32.3629 76.9918 33.3714C77.0038 36.7811 77.0038 40.1895 76.9918 43.5965C76.9918 44.6431 76.4495 45.1875 75.3849 45.2759C74.0613 45.3844 72.7397 45.5009 71.414 45.5833C70.9721 45.6114 70.7713 45.7681 70.6628 46.2241C69.8807 49.5945 68.5471 52.8126 66.716 55.7482C66.4509 56.17 66.4971 56.4292 66.8104 56.7827C67.6942 57.7731 68.5478 58.7916 69.3954 59.8121C70.0864 60.6458 70.0663 61.371 69.303 62.1404C66.9182 64.5417 64.5253 66.9329 62.1244 69.3141C61.3632 70.0694 60.6421 70.0774 59.7985 69.3763C58.7943 68.5427 57.79 67.707 56.8239 66.8391C56.4563 66.5117 56.1912 66.4374 55.7312 66.7226C52.7934 68.5563 49.5713 69.8889 46.1966 70.666C45.7246 70.7765 45.6081 71.0075 45.58 71.4354C45.4996 72.6608 45.343 73.8802 45.3028 75.1056C45.2747 75.9674 44.9654 76.5922 44.2101 76.998H32.7815C32.0282 76.5962 31.7149 75.9715 31.6888 75.1077C31.6506 73.8843 31.4879 72.6649 31.4156 71.4415C31.3875 70.9553 31.2027 70.7625 30.7267 70.65C27.3596 69.8668 24.1462 68.5287 21.2182 66.6905C20.8165 66.4374 20.5694 66.5016 20.2461 66.7869C19.2418 67.6608 18.2375 68.5165 17.2131 69.3663C16.3434 70.0915 15.6304 70.0714 14.833 69.2779C12.4549 66.9141 10.0828 64.5417 7.71668 62.1605C6.9233 61.3569 6.91326 60.6578 7.63233 59.782C8.48195 58.7635 9.33558 57.749 10.2113 56.7526C10.5005 56.4231 10.5548 56.1801 10.3037 55.7803C8.45478 52.829 7.11134 49.5897 6.32877 46.196C6.23036 45.7781 6.04958 45.6174 5.6318 45.5933C4.38248 45.511 3.13718 45.3482 1.88786 45.3081C1.02619 45.2799 0.401522 44.9746 -0.00219727 44.2193L-0.000186748 32.7868ZM34.6213 3.0334C34.5048 4.47376 34.3883 5.84581 34.2859 7.21385C34.2055 8.28659 33.8359 8.77073 32.7855 8.97362C28.8181 9.74325 25.0457 11.3022 21.6922 13.5579C20.7361 14.1947 20.232 14.1364 19.3362 13.3771L16.2591 10.7655L10.7436 16.2156C10.7787 16.2706 10.8169 16.3236 10.8581 16.3743C11.62 17.2729 12.3819 18.1709 13.1438 19.0682C14.2224 20.3338 14.2525 20.6512 13.3447 22.0313C11.2256 25.2344 9.75378 28.8214 9.0122 32.5899C8.75712 33.8776 8.36143 34.197 7.0398 34.3015C5.71817 34.4059 4.36642 34.5265 3.06487 34.639V42.3751C4.47086 42.4916 5.81057 42.6102 7.15831 42.7126C8.32327 42.801 8.76516 43.1586 8.99413 44.3097C9.75161 48.2031 11.28 51.9058 13.4893 55.1997C14.2023 56.2725 14.1561 56.7506 13.3125 57.741C12.4388 58.7695 11.5671 59.798 10.7958 60.7041L16.249 66.2485C17.2111 65.4329 18.2074 64.5932 19.1976 63.7475C20.2802 62.8214 20.696 62.7752 21.8569 63.5466C25.1339 65.7353 28.8132 67.2506 32.681 68.0043C33.8621 68.2373 34.2055 68.6813 34.2879 69.9067C34.3843 71.2486 34.5088 72.5885 34.6193 73.9244H42.3803C42.4948 72.5383 42.6153 71.2165 42.7077 69.8926C42.7941 68.6712 43.1396 68.2273 44.3266 67.9983C48.2209 67.243 51.9236 65.7128 55.215 63.4984C56.2575 62.8053 56.7475 62.8415 57.6976 63.647L60.7968 66.2767L66.2822 60.8045C65.4566 59.8302 64.6191 58.8358 63.7755 57.8474C62.7933 56.6964 62.7592 56.3267 63.5887 55.0692C65.7412 51.8272 67.2364 48.1941 67.9894 44.3759C68.2345 43.1304 68.6623 42.791 69.9176 42.7066C71.2594 42.6162 72.5971 42.4896 73.9468 42.3771V34.6229C72.589 34.5104 71.2734 34.3858 69.9538 34.2974C68.6743 34.2111 68.2325 33.8776 67.9955 32.6602C67.2348 28.7667 65.703 25.0647 63.4903 21.7721C62.7973 20.7315 62.8435 20.2534 63.659 19.2952C64.5448 18.2526 65.4285 17.21 66.2601 16.2277L60.7727 10.7374L57.7197 13.3309C56.7375 14.1645 56.2635 14.2007 55.1769 13.4775C51.905 11.2795 48.2258 9.75968 44.3568 9.00777C43.1336 8.76872 42.7921 8.3328 42.7017 7.06319C42.6073 5.72327 42.4808 4.38737 42.3663 3.0334H34.6213ZM38.4596 62.4056C25.633 62.2951 14.6864 53.3877 14.4835 38.2991C14.3088 25.1711 25.3458 14.4076 38.536 14.4317C51.7262 14.4558 62.7531 25.2796 62.5141 38.3755C62.2369 53.6449 51.1156 62.3473 38.4596 62.4056ZM38.4978 17.5917C27.6516 17.6017 17.7052 25.1049 17.4843 38.6306C17.2955 50.0811 26.9245 59.5228 38.4596 59.553C49.9948 59.5831 59.7001 50.1113 59.5113 38.6326C59.2884 25.0526 49.2998 17.5997 38.4978 17.5917ZM40.0022 27.1519C40.0022 28.9739 39.9902 30.6433 40.0223 32.3127C40.0223 32.4794 40.2613 32.7145 40.4421 32.7928C41.3065 33.1021 42.0919 33.5987 42.7419 34.2471C43.392 34.8955 43.8906 35.6796 44.2021 36.5434C44.2724 36.7282 44.5094 36.9733 44.6721 36.9773C46.3432 37.0094 48.0163 36.9954 49.81 36.9954C49.5931 36.7161 49.4384 36.5373 49.3079 36.3425C49.0989 36.056 49.0019 35.703 49.0352 35.35C49.0685 34.997 49.2298 34.6683 49.4886 34.426C50.0028 33.9218 50.8022 33.7731 51.3345 34.2633C52.5296 35.3642 53.6845 36.5172 54.7792 37.7185C55.2472 38.2308 55.1548 38.9359 54.6787 39.4422C53.6463 40.535 52.5858 41.6037 51.4911 42.6323C51.2239 42.889 50.8662 43.0298 50.4957 43.0242C50.1253 43.0185 49.772 42.8668 49.5127 42.6021C48.9262 42.0557 48.868 41.2461 49.3721 40.5651C49.4866 40.4124 49.6172 40.2718 49.8421 40.0067C48.0123 40.0067 46.3231 39.9966 44.6319 40.0247C44.4853 40.0247 44.2724 40.2537 44.2101 40.4265C43.9018 41.3066 43.3983 42.1055 42.7374 42.7634C42.0765 43.4213 41.2753 43.921 40.3939 44.2253C40.2945 44.2737 40.2081 44.345 40.1418 44.4334C40.0754 44.5217 40.031 44.6246 40.0123 44.7335C39.9821 46.3848 39.9942 48.0341 39.9942 49.8039C40.2593 49.603 40.4401 49.4544 40.6309 49.3238C40.9153 49.1119 41.2671 49.011 41.6205 49.0398C41.974 49.0687 42.3048 49.2253 42.5511 49.4805C43.0813 50.0088 43.2119 50.8284 42.6957 51.3889C41.6291 52.548 40.5124 53.669 39.3514 54.7337C38.769 55.2701 38.0158 55.1596 37.3871 54.5549C36.4109 53.6174 35.4528 52.6612 34.5128 51.6862C33.842 50.9952 33.8078 50.1595 34.3762 49.5347C34.9447 48.91 35.7983 48.8738 36.5857 49.5086C36.6801 49.5849 36.7684 49.6633 36.9874 49.8501C36.9874 48.3334 36.9311 46.9433 37.0075 45.5612C37.0537 44.7054 36.8548 44.2514 35.9791 43.9199C34.4305 43.3313 33.4121 42.112 32.8558 40.5591C32.6991 40.1192 32.5003 39.9926 32.0523 39.9986C30.4736 40.0247 28.8949 39.9986 27.1957 39.9986C27.3845 40.2537 27.5271 40.4325 27.6576 40.6194C27.8725 40.9018 27.9774 41.2529 27.9526 41.6069C27.9279 41.961 27.7752 42.294 27.5231 42.5439C26.9828 43.0983 26.1372 43.2108 25.5527 42.6704C24.4319 41.6338 23.3499 40.5551 22.3068 39.4341C21.7203 38.8033 21.8168 38.0279 22.4735 37.3489C23.3794 36.4108 24.3053 35.4927 25.2373 34.5827C25.9925 33.8414 26.8562 33.7912 27.4969 34.42C28.1377 35.0488 28.0995 35.8262 27.4407 36.6297C27.3784 36.7041 27.3182 36.7804 27.1495 36.9893H28.2562C29.5356 36.9893 30.8131 36.9893 32.0905 36.9893C32.444 36.9893 32.665 36.9512 32.8096 36.5373C33.4523 34.7012 34.7257 33.4658 36.5475 32.7808C36.7182 32.7165 36.9593 32.5136 36.9613 32.379C36.9894 30.6855 36.9793 28.992 36.9793 27.1881C36.6921 27.409 36.5093 27.5677 36.3105 27.6983C36.0221 27.9047 35.668 27.9983 35.3153 27.9612C34.9626 27.9242 34.6356 27.7592 34.3963 27.4974C33.9002 26.9751 33.7697 26.1796 34.2598 25.6452C35.3444 24.468 36.4692 23.329 37.6562 22.2462C38.2226 21.7279 38.9919 21.8666 39.6226 22.4752C40.5773 23.398 41.5147 24.3355 42.4346 25.2877C43.1356 26.0129 43.1697 26.8646 42.5671 27.4974C41.9646 28.1302 41.1611 28.1182 40.3577 27.4653L40.0022 27.1519ZM38.4657 41.5053C39.262 41.5117 40.0285 41.2026 40.5975 40.6455C41.1666 40.0883 41.492 39.3285 41.5026 38.5321C41.5101 38.1372 41.4387 37.7447 41.2926 37.3777C41.1465 37.0107 40.9287 36.6765 40.6518 36.3948C40.375 36.113 40.0447 35.8894 39.6804 35.7369C39.316 35.5844 38.9249 35.5062 38.5299 35.5068C38.1352 35.4977 37.7425 35.5675 37.3751 35.7122C37.0076 35.8568 36.6728 36.0734 36.3901 36.3492C36.1074 36.625 35.8826 36.9544 35.7289 37.3183C35.5752 37.6821 35.4957 38.0729 35.495 38.4679C35.4886 39.2639 35.7974 40.0302 36.354 40.5994C36.9106 41.1685 37.6698 41.4942 38.4657 41.5053Z" fill="black"/>
  </g>
</svg>