<?xml version="1.0" encoding="utf-8"?>
<svg viewBox="-73.206 36.518 615.607 297.992" xmlns="http://www.w3.org/2000/svg">
  <defs>
    <clipPath id="clip0_1283_5201">
      <rect width="617" height="239" fill="white" transform="matrix(-1 0 0 1 617 0)"/>
    </clipPath>
    <linearGradient id="paint0_linear_1283_5201" x1="555.264" y1="250.214" x2="555.264" y2="112.241" gradientUnits="userSpaceOnUse">
      <stop stop-color="#001F7D"/>
      <stop offset="1" stop-color="#6560F0"/>
    </linearGradient>
    <linearGradient id="paint1_linear_1283_5201" x1="617" y1="119.508" x2="279.454" y2="119.508" gradientUnits="userSpaceOnUse">
      <stop stop-color="#6560F0"/>
      <stop offset="1" stop-color="#0029A6"/>
    </linearGradient>
    <linearGradient id="paint2_linear_1283_5201" x1="15" y1="89" x2="3.01558" y2="89" gradientUnits="userSpaceOnUse">
      <stop stop-color="#6560F0"/>
      <stop offset="1" stop-color="#0029A6"/>
    </linearGradient>
    <clipPath id="clip0_1283_5214">
      <rect width="72" height="77" fill="white"/>
    </clipPath>
  </defs>
  <g clip-path="url(#clip0_1283_5201)" transform="matrix(0.9999999999999999, 0, 0, 0.9999999999999999, -74.98716084639966, 95.67781209465576)">
    <path d="M617 239V134.635L493.528 239H617Z" fill="url(#paint0_linear_1283_5201)"/>
    <path d="M279.454 0L493.528 239H617L402.926 0H279.454Z" fill="url(#paint1_linear_1283_5201)"/>
    <path d="M408.409 89L542.691 239.098H540.631L407.717 90.5345H12V89H408.409Z" fill="#DEDFEE"/>
    <path d="M9 95C5.6863 95 3 92.3137 3 89C3 85.6863 5.6863 83 9 83C12.3137 83 15 85.6863 15 89C15 92.3137 12.3137 95 9 95Z" fill="url(#paint2_linear_1283_5201)"/>
    <path d="M33.352 47.808C34.568 47.808 35.624 47.656 36.52 47.352C37.432 47.048 38.176 46.632 38.752 46.104C39.344 45.56 39.784 44.92 40.072 44.184C40.36 43.448 40.504 42.64 40.504 41.76C40.504 40 39.92 38.648 38.752 37.704C37.6 36.76 35.832 36.288 33.448 36.288H29.32V47.808H33.352ZM49.96 66H44.128C43.024 66 42.224 65.568 41.728 64.704L34.432 53.592C34.16 53.176 33.856 52.88 33.52 52.704C33.2 52.528 32.72 52.44 32.08 52.44H29.32V66H22.864V31.296H33.448C35.8 31.296 37.816 31.544 39.496 32.04C41.192 32.52 42.576 33.2 43.648 34.08C44.736 34.96 45.536 36.016 46.048 37.248C46.56 38.464 46.816 39.808 46.816 41.28C46.816 42.448 46.64 43.552 46.288 44.592C45.952 45.632 45.456 46.576 44.8 47.424C44.16 48.272 43.36 49.016 42.4 49.656C41.456 50.296 40.376 50.8 39.16 51.168C39.576 51.408 39.96 51.696 40.312 52.032C40.664 52.352 40.984 52.736 41.272 53.184L49.96 66ZM66.562 50.856C66.562 50.088 66.45 49.368 66.226 48.696C66.018 48.008 65.698 47.408 65.266 46.896C64.834 46.384 64.282 45.984 63.61 45.696C62.954 45.392 62.186 45.24 61.306 45.24C59.594 45.24 58.242 45.728 57.25 46.704C56.274 47.68 55.65 49.064 55.378 50.856H66.562ZM55.258 54.432C55.354 55.696 55.578 56.792 55.93 57.72C56.282 58.632 56.746 59.392 57.322 60C57.898 60.592 58.578 61.04 59.362 61.344C60.162 61.632 61.042 61.776 62.002 61.776C62.962 61.776 63.786 61.664 64.474 61.44C65.178 61.216 65.786 60.968 66.298 60.696C66.826 60.424 67.282 60.176 67.666 59.952C68.066 59.728 68.45 59.616 68.818 59.616C69.314 59.616 69.682 59.8 69.922 60.168L71.626 62.328C70.97 63.096 70.234 63.744 69.418 64.272C68.602 64.784 67.746 65.2 66.85 65.52C65.97 65.824 65.066 66.04 64.138 66.168C63.226 66.296 62.338 66.36 61.474 66.36C59.762 66.36 58.17 66.08 56.698 65.52C55.226 64.944 53.946 64.104 52.858 63C51.77 61.88 50.914 60.504 50.29 58.872C49.666 57.224 49.354 55.32 49.354 53.16C49.354 51.48 49.626 49.904 50.17 48.432C50.714 46.944 51.49 45.656 52.498 44.568C53.522 43.464 54.762 42.592 56.218 41.952C57.69 41.312 59.346 40.992 61.186 40.992C62.738 40.992 64.17 41.24 65.482 41.736C66.794 42.232 67.922 42.96 68.866 43.92C69.81 44.864 70.546 46.032 71.074 47.424C71.618 48.8 71.89 50.376 71.89 52.152C71.89 53.048 71.794 53.656 71.602 53.976C71.41 54.28 71.042 54.432 70.498 54.432H55.258ZM93.4986 46.584C93.3226 46.808 93.1466 46.984 92.9706 47.112C92.8106 47.24 92.5706 47.304 92.2506 47.304C91.9466 47.304 91.6506 47.216 91.3626 47.04C91.0746 46.848 90.7306 46.64 90.3306 46.416C89.9306 46.176 89.4506 45.968 88.8906 45.792C88.3466 45.6 87.6666 45.504 86.8506 45.504C85.8106 45.504 84.8986 45.696 84.1146 46.08C83.3306 46.448 82.6746 46.984 82.1466 47.688C81.6346 48.392 81.2506 49.248 80.9946 50.256C80.7386 51.248 80.6106 52.376 80.6106 53.64C80.6106 54.952 80.7466 56.12 81.0186 57.144C81.3066 58.168 81.7146 59.032 82.2426 59.736C82.7706 60.424 83.4106 60.952 84.1626 61.32C84.9146 61.672 85.7626 61.848 86.7066 61.848C87.6506 61.848 88.4106 61.736 88.9866 61.512C89.5786 61.272 90.0746 61.016 90.4746 60.744C90.8746 60.456 91.2186 60.2 91.5066 59.976C91.8106 59.736 92.1466 59.616 92.5146 59.616C92.9946 59.616 93.3546 59.8 93.5946 60.168L95.2986 62.328C94.6426 63.096 93.9306 63.744 93.1626 64.272C92.3946 64.784 91.5946 65.2 90.7626 65.52C89.9466 65.824 89.0986 66.04 88.2186 66.168C87.3546 66.296 86.4906 66.36 85.6266 66.36C84.1066 66.36 82.6746 66.08 81.3306 65.52C79.9866 64.944 78.8106 64.112 77.8026 63.024C76.7946 61.936 75.9946 60.608 75.4026 59.04C74.8266 57.456 74.5386 55.656 74.5386 53.64C74.5386 51.832 74.7946 50.16 75.3066 48.624C75.8346 47.072 76.6026 45.736 77.6106 44.616C78.6186 43.48 79.8666 42.592 81.3546 41.952C82.8426 41.312 84.5546 40.992 86.4906 40.992C88.3306 40.992 89.9386 41.288 91.3146 41.88C92.7066 42.472 93.9546 43.32 95.0586 44.424L93.4986 46.584ZM109.009 40.992C110.833 40.992 112.489 41.288 113.977 41.88C115.481 42.472 116.761 43.312 117.817 44.4C118.889 45.488 119.713 46.816 120.289 48.384C120.865 49.952 121.153 51.704 121.153 53.64C121.153 55.592 120.865 57.352 120.289 58.92C119.713 60.488 118.889 61.824 117.817 62.928C116.761 64.032 115.481 64.88 113.977 65.472C112.489 66.064 110.833 66.36 109.009 66.36C107.169 66.36 105.497 66.064 103.993 65.472C102.489 64.88 101.201 64.032 100.129 62.928C99.073 61.824 98.249 60.488 97.657 58.92C97.081 57.352 96.793 55.592 96.793 53.64C96.793 51.704 97.081 49.952 97.657 48.384C98.249 46.816 99.073 45.488 100.129 44.4C101.201 43.312 102.489 42.472 103.993 41.88C105.497 41.288 107.169 40.992 109.009 40.992ZM109.009 61.8C111.057 61.8 112.569 61.112 113.545 59.736C114.537 58.36 115.033 56.344 115.033 53.688C115.033 51.032 114.537 49.008 113.545 47.616C112.569 46.224 111.057 45.528 109.009 45.528C106.929 45.528 105.385 46.232 104.377 47.64C103.385 49.032 102.889 51.048 102.889 53.688C102.889 56.328 103.385 58.344 104.377 59.736C105.385 61.112 106.929 61.8 109.009 61.8ZM134.008 53.088C134.744 53.088 135.384 52.992 135.928 52.8C136.472 52.592 136.92 52.312 137.272 51.96C137.64 51.608 137.912 51.184 138.088 50.688C138.28 50.192 138.376 49.648 138.376 49.056C138.376 47.84 138.008 46.88 137.272 46.176C136.552 45.456 135.464 45.096 134.008 45.096C132.552 45.096 131.456 45.456 130.72 46.176C130 46.88 129.64 47.84 129.64 49.056C129.64 49.632 129.728 50.168 129.904 50.664C130.096 51.16 130.368 51.592 130.72 51.96C131.088 52.312 131.544 52.592 132.088 52.8C132.648 52.992 133.288 53.088 134.008 53.088ZM140.704 67.104C140.704 66.624 140.56 66.232 140.272 65.928C139.984 65.624 139.592 65.392 139.096 65.232C138.6 65.056 138.016 64.928 137.344 64.848C136.688 64.768 135.984 64.712 135.232 64.68C134.496 64.632 133.728 64.592 132.928 64.56C132.144 64.528 131.376 64.464 130.624 64.368C129.968 64.736 129.432 65.168 129.016 65.664C128.616 66.16 128.416 66.736 128.416 67.392C128.416 67.824 128.52 68.224 128.728 68.592C128.952 68.976 129.296 69.304 129.76 69.576C130.24 69.848 130.856 70.056 131.608 70.2C132.36 70.36 133.28 70.44 134.368 70.44C135.472 70.44 136.424 70.352 137.224 70.176C138.024 70.016 138.68 69.784 139.192 69.48C139.72 69.192 140.104 68.84 140.344 68.424C140.584 68.024 140.704 67.584 140.704 67.104ZM146.608 42.216V44.424C146.608 45.128 146.184 45.56 145.336 45.72L143.128 46.128C143.464 46.976 143.632 47.904 143.632 48.912C143.632 50.128 143.384 51.232 142.888 52.224C142.408 53.2 141.736 54.032 140.872 54.72C140.008 55.408 138.984 55.944 137.8 56.328C136.632 56.696 135.368 56.88 134.008 56.88C133.528 56.88 133.064 56.856 132.616 56.808C132.168 56.76 131.728 56.696 131.296 56.616C130.528 57.08 130.144 57.6 130.144 58.176C130.144 58.672 130.368 59.04 130.816 59.28C131.28 59.504 131.888 59.664 132.64 59.76C133.392 59.856 134.248 59.92 135.208 59.952C136.168 59.968 137.152 60.016 138.16 60.096C139.168 60.176 140.152 60.32 141.112 60.528C142.072 60.72 142.928 61.032 143.68 61.464C144.432 61.896 145.032 62.488 145.48 63.24C145.944 63.976 146.176 64.928 146.176 66.096C146.176 67.184 145.904 68.24 145.36 69.264C144.832 70.288 144.056 71.2 143.032 72C142.024 72.8 140.776 73.44 139.288 73.92C137.816 74.416 136.136 74.664 134.248 74.664C132.392 74.664 130.776 74.48 129.4 74.112C128.024 73.76 126.88 73.28 125.968 72.672C125.056 72.08 124.376 71.392 123.928 70.608C123.48 69.824 123.256 69.008 123.256 68.16C123.256 67.008 123.6 66.048 124.288 65.28C124.992 64.496 125.952 63.872 127.168 63.408C126.512 63.072 125.992 62.624 125.608 62.064C125.224 61.504 125.032 60.768 125.032 59.856C125.032 59.488 125.096 59.112 125.224 58.728C125.368 58.328 125.568 57.936 125.824 57.552C126.096 57.168 126.432 56.808 126.832 56.472C127.232 56.12 127.704 55.808 128.248 55.536C127 54.864 126.016 53.968 125.296 52.848C124.592 51.728 124.24 50.416 124.24 48.912C124.24 47.696 124.48 46.6 124.96 45.624C125.456 44.632 126.136 43.792 127 43.104C127.88 42.4 128.912 41.864 130.096 41.496C131.296 41.128 132.6 40.944 134.008 40.944C135.064 40.944 136.056 41.056 136.984 41.28C137.912 41.488 138.76 41.8 139.528 42.216H146.608ZM155.431 44.4C155.927 43.904 156.447 43.448 156.991 43.032C157.551 42.6 158.135 42.24 158.743 41.952C159.367 41.648 160.031 41.416 160.735 41.256C161.439 41.08 162.207 40.992 163.039 40.992C164.383 40.992 165.575 41.224 166.615 41.688C167.655 42.136 168.519 42.776 169.207 43.608C169.911 44.424 170.439 45.408 170.791 46.56C171.159 47.696 171.343 48.952 171.343 50.328V66H165.415V50.328C165.415 48.824 165.071 47.664 164.383 46.848C163.695 46.016 162.647 45.6 161.239 45.6C160.215 45.6 159.255 45.832 158.359 46.296C157.463 46.76 156.615 47.392 155.815 48.192V66H149.887V41.376H153.511C154.279 41.376 154.783 41.736 155.023 42.456L155.431 44.4ZM182.645 41.376V66H176.693V41.376H182.645ZM183.461 34.2C183.461 34.712 183.357 35.192 183.149 35.64C182.941 36.088 182.661 36.48 182.309 36.816C181.973 37.152 181.573 37.424 181.109 37.632C180.645 37.824 180.149 37.92 179.621 37.92C179.109 37.92 178.621 37.824 178.157 37.632C177.709 37.424 177.317 37.152 176.981 36.816C176.645 36.48 176.373 36.088 176.165 35.64C175.973 35.192 175.877 34.712 175.877 34.2C175.877 33.672 175.973 33.176 176.165 32.712C176.373 32.248 176.645 31.848 176.981 31.512C177.317 31.176 177.709 30.912 178.157 30.72C178.621 30.512 179.109 30.408 179.621 30.408C180.149 30.408 180.645 30.512 181.109 30.72C181.573 30.912 181.973 31.176 182.309 31.512C182.661 31.848 182.941 32.248 183.149 32.712C183.357 33.176 183.461 33.672 183.461 34.2ZM213.049 66H207.121V45.816H195.697V59.16C195.697 59.928 195.881 60.528 196.249 60.96C196.633 61.392 197.153 61.608 197.809 61.608C198.177 61.608 198.481 61.568 198.721 61.488C198.977 61.392 199.193 61.296 199.369 61.2C199.561 61.104 199.729 61.016 199.873 60.936C200.017 60.84 200.161 60.792 200.305 60.792C200.481 60.792 200.625 60.84 200.737 60.936C200.849 61.016 200.969 61.144 201.097 61.32L202.873 64.2C202.009 64.92 201.017 65.464 199.897 65.832C198.777 66.2 197.617 66.384 196.417 66.384C194.273 66.384 192.625 65.784 191.473 64.584C190.337 63.368 189.769 61.696 189.769 59.568V45.816H187.249C186.929 45.816 186.657 45.712 186.433 45.504C186.209 45.296 186.097 44.984 186.097 44.568V42.216L190.057 41.544L191.305 34.848C191.385 34.528 191.537 34.28 191.761 34.104C191.985 33.928 192.273 33.84 192.625 33.84H195.697V41.592H213.049V66ZM214.081 34.104C214.081 34.616 213.977 35.104 213.769 35.568C213.561 36.016 213.281 36.408 212.929 36.744C212.593 37.08 212.185 37.352 211.705 37.56C211.241 37.752 210.745 37.848 210.217 37.848C209.705 37.848 209.225 37.752 208.777 37.56C208.329 37.352 207.937 37.08 207.601 36.744C207.265 36.408 206.993 36.016 206.785 35.568C206.593 35.104 206.497 34.616 206.497 34.104C206.497 33.576 206.593 33.088 206.785 32.64C206.993 32.176 207.265 31.776 207.601 31.44C207.937 31.088 208.329 30.816 208.777 30.624C209.225 30.416 209.705 30.312 210.217 30.312C210.745 30.312 211.241 30.416 211.705 30.624C212.185 30.816 212.593 31.088 212.929 31.44C213.281 31.776 213.561 32.176 213.769 32.64C213.977 33.088 214.081 33.576 214.081 34.104ZM229.515 40.992C231.339 40.992 232.995 41.288 234.483 41.88C235.987 42.472 237.267 43.312 238.323 44.4C239.395 45.488 240.219 46.816 240.795 48.384C241.371 49.952 241.659 51.704 241.659 53.64C241.659 55.592 241.371 57.352 240.795 58.92C240.219 60.488 239.395 61.824 238.323 62.928C237.267 64.032 235.987 64.88 234.483 65.472C232.995 66.064 231.339 66.36 229.515 66.36C227.675 66.36 226.003 66.064 224.499 65.472C222.995 64.88 221.707 64.032 220.635 62.928C219.579 61.824 218.755 60.488 218.163 58.92C217.587 57.352 217.299 55.592 217.299 53.64C217.299 51.704 217.587 49.952 218.163 48.384C218.755 46.816 219.579 45.488 220.635 44.4C221.707 43.312 222.995 42.472 224.499 41.88C226.003 41.288 227.675 40.992 229.515 40.992ZM229.515 61.8C231.563 61.8 233.075 61.112 234.051 59.736C235.043 58.36 235.539 56.344 235.539 53.688C235.539 51.032 235.043 49.008 234.051 47.616C233.075 46.224 231.563 45.528 229.515 45.528C227.435 45.528 225.891 46.232 224.883 47.64C223.891 49.032 223.395 51.048 223.395 53.688C223.395 56.328 223.891 58.344 224.883 59.736C225.891 61.112 227.435 61.8 229.515 61.8ZM251.246 44.4C251.742 43.904 252.262 43.448 252.806 43.032C253.366 42.6 253.95 42.24 254.558 41.952C255.182 41.648 255.846 41.416 256.55 41.256C257.254 41.08 258.022 40.992 258.854 40.992C260.198 40.992 261.39 41.224 262.43 41.688C263.47 42.136 264.334 42.776 265.022 43.608C265.726 44.424 266.254 45.408 266.606 46.56C266.974 47.696 267.158 48.952 267.158 50.328V66H261.23V50.328C261.23 48.824 260.886 47.664 260.198 46.848C259.51 46.016 258.462 45.6 257.054 45.6C256.03 45.6 255.07 45.832 254.174 46.296C253.278 46.76 252.43 47.392 251.63 48.192V66H245.702V41.376H249.326C250.094 41.376 250.598 41.736 250.838 42.456L251.246 44.4ZM287.339 46.176C287.179 46.432 287.011 46.616 286.835 46.728C286.659 46.824 286.435 46.872 286.163 46.872C285.875 46.872 285.563 46.792 285.227 46.632C284.907 46.472 284.531 46.296 284.099 46.104C283.667 45.896 283.171 45.712 282.611 45.552C282.067 45.392 281.419 45.312 280.667 45.312C279.499 45.312 278.579 45.56 277.907 46.056C277.251 46.552 276.923 47.2 276.923 48C276.923 48.528 277.091 48.976 277.427 49.344C277.779 49.696 278.235 50.008 278.795 50.28C279.371 50.552 280.019 50.8 280.739 51.024C281.459 51.232 282.187 51.464 282.923 51.72C283.675 51.976 284.411 52.272 285.131 52.608C285.851 52.928 286.491 53.344 287.051 53.856C287.627 54.352 288.083 54.952 288.419 55.656C288.771 56.36 288.947 57.208 288.947 58.2C288.947 59.384 288.731 60.48 288.299 61.488C287.883 62.48 287.259 63.344 286.427 64.08C285.595 64.8 284.563 65.368 283.331 65.784C282.115 66.184 280.707 66.384 279.107 66.384C278.259 66.384 277.427 66.304 276.611 66.144C275.811 66 275.035 65.792 274.283 65.52C273.547 65.248 272.859 64.928 272.219 64.56C271.595 64.192 271.043 63.792 270.563 63.36L271.931 61.104C272.107 60.832 272.315 60.624 272.555 60.48C272.795 60.336 273.099 60.264 273.467 60.264C273.835 60.264 274.179 60.368 274.499 60.576C274.835 60.784 275.219 61.008 275.651 61.248C276.083 61.488 276.587 61.712 277.163 61.92C277.755 62.128 278.499 62.232 279.395 62.232C280.099 62.232 280.699 62.152 281.195 61.992C281.707 61.816 282.123 61.592 282.443 61.32C282.779 61.048 283.019 60.736 283.163 60.384C283.323 60.016 283.403 59.64 283.403 59.256C283.403 58.68 283.227 58.208 282.875 57.84C282.539 57.472 282.083 57.152 281.507 56.88C280.947 56.608 280.299 56.368 279.563 56.16C278.843 55.936 278.099 55.696 277.331 55.44C276.579 55.184 275.835 54.888 275.099 54.552C274.379 54.2 273.731 53.76 273.155 53.232C272.595 52.704 272.139 52.056 271.787 51.288C271.451 50.52 271.283 49.592 271.283 48.504C271.283 47.496 271.483 46.536 271.883 45.624C272.283 44.712 272.867 43.92 273.635 43.248C274.419 42.56 275.387 42.016 276.539 41.616C277.707 41.2 279.051 40.992 280.571 40.992C282.267 40.992 283.811 41.272 285.203 41.832C286.595 42.392 287.755 43.128 288.683 44.04L287.339 46.176Z" fill="#212844"/>
  </g>
  <g clip-path="url(#clip0_1283_5214)" transform="matrix(0.9999999999999999, 0, 0, 0.9999999999999999, 29.726120438070893, 38.7948919355108)">
    <path d="M9.66128 74.0382C9.63652 75.089 9.45498 75.9947 8.59676 76.5004C8.11351 76.7799 7.57126 76.9404 7.0144 76.9689C5.55583 77.031 4.09314 76.9999 2.63251 76.9875C1.01303 76.9751 0.0145142 75.9512 0.0124512 74.3097C0.0124512 67.5861 0.0124512 60.8625 0.0124512 54.1389C0.0124512 52.4228 0.977952 51.4445 2.66758 51.4321C3.74448 51.4321 4.82139 51.4134 5.89624 51.4321C6.07022 51.4595 6.24818 51.4219 6.39645 51.3264C6.54471 51.231 6.653 51.0842 6.70083 50.9139C10.8118 40.9197 18.0627 34.5036 28.4535 31.6655C28.5263 31.6329 28.5955 31.5926 28.6598 31.5453C22.3861 27.9078 19.1244 22.5418 19.5824 15.2275C19.8754 10.6159 21.9776 6.81058 25.493 3.82808C32.4125 -2.03123 42.9071 -1.0571 48.7063 5.96909C50.85 8.54344 52.165 11.7112 52.477 15.0529C52.789 18.3947 52.0835 21.7528 50.4537 24.6828C48.8033 27.6632 46.4164 29.8851 43.3754 31.5038C44.9372 32.0427 46.4225 32.4862 47.8543 33.0624C52.4053 34.8925 56.2653 37.7092 59.5765 41.3384C60.3869 42.1962 61.3225 42.9252 62.3513 43.5001C62.9248 43.8318 63.7335 43.8027 64.4411 43.8483C66.8838 44.0017 68.1216 44.9821 68.5672 47.3967C68.7745 48.6188 69.4168 49.7237 70.3744 50.5056C72.1672 52.0539 72.4787 53.7265 71.3048 55.8032C70.6448 56.9121 70.4239 58.2297 70.6859 59.4946C71.0428 61.4014 70.3125 62.8667 68.5919 63.8782C69.38 65.7311 70.1495 67.5737 70.9459 69.4038C71.2017 69.9966 71.4142 70.5748 70.9459 71.1406C70.4776 71.7065 69.8751 71.6173 69.248 71.466C68.4764 71.2795 67.6925 71.1531 66.9188 70.9748C66.7516 70.9137 66.5673 70.9192 66.4039 70.9901C66.2406 71.061 66.1103 71.1919 66.04 71.3562C65.6153 72.1509 65.1326 72.913 64.5958 73.6361C64.3153 73.9905 63.7706 74.3677 63.3786 74.3408C62.9867 74.3138 62.4668 73.8703 62.2791 73.4744C61.5508 71.9448 60.9195 70.3655 60.28 68.7965C59.9086 67.8825 59.069 67.9903 58.351 67.8514C57.6909 67.725 57.4226 68.1602 57.1771 68.7032C56.2673 70.7178 55.3101 72.7096 54.3797 74.7138C54.1301 75.2527 53.8227 75.7087 53.1645 75.7502C52.5064 75.7916 52.1454 75.3729 51.8525 74.8506C51.4398 74.1107 50.9777 73.3998 50.5961 72.6391C50.3733 72.2018 50.0865 72.1417 49.6615 72.2246C48.7885 72.4269 47.9038 72.5744 47.0126 72.6661C46.5835 72.6951 45.9563 72.55 45.7417 72.2516C45.6225 72.0396 45.5507 71.8041 45.5311 71.5615C45.5115 71.3188 45.5446 71.0748 45.6283 70.8463C46.536 68.7177 47.5366 66.6327 48.5042 64.5311C48.5557 64.4191 48.5887 64.2968 48.6568 64.1165C46.9424 63.4699 45.9749 62.2512 45.847 60.3858H39.2452C39.0596 61.0801 38.9667 61.7827 38.6779 62.39C38.3891 62.9973 37.9228 63.4699 37.5185 64.0212C38.845 66.3363 38.1498 69.2545 35.0882 70.3302C35.0882 71.1925 35.1996 72.0174 35.0655 72.8029C34.9086 73.7144 34.4355 74.5406 33.7301 75.1351C33.0246 75.7296 32.1325 76.0539 31.2118 76.0507C26.7267 76.0756 22.2396 76.0838 17.7525 76.0362C15.5017 76.0113 13.3521 75.3978 11.2498 74.6185C10.7526 74.4299 10.2472 74.2454 9.66128 74.0382ZM21.9921 16.583C21.9892 20.3235 23.4597 23.9131 26.0823 26.5681C28.7049 29.2231 32.2667 30.7278 35.9898 30.7535C43.7303 30.7825 50.1154 24.3885 50.1092 16.6099C50.0681 12.8936 48.5706 9.34321 45.9414 6.72856C43.3123 4.11391 39.7633 2.64567 36.0639 2.64212C32.3644 2.63858 28.8127 4.10001 26.1786 6.70962C23.5445 9.31922 22.0403 12.8667 21.9921 16.583ZM46.3153 57.8572C45.9027 56.9846 45.5726 56.2716 45.2239 55.5773C44.3286 53.7762 44.5576 52.0539 46.0698 50.7522C47.2239 49.8059 47.9865 48.4621 48.2091 46.9821C48.531 45.0898 49.9772 43.8732 51.904 43.923C53.8309 43.9727 55.2627 43.1084 56.5912 41.8503C56.4695 41.7218 56.3499 41.5913 56.224 41.4669C46.633 31.9391 31.2241 30.5131 19.9765 38.0906C15.0889 41.342 11.3008 46.0093 9.11457 51.4735C9.00018 51.7164 8.9704 51.9909 9.02999 52.2528C9.24039 52.75 9.47941 53.2344 9.74586 53.7037C10.0904 53.6945 10.4267 53.5964 10.7226 53.4189C11.0185 53.2414 11.264 52.9905 11.4355 52.6902C12.6382 50.603 14.3506 49.0776 16.3868 47.8402C17.1264 47.3938 17.7641 46.7957 18.2582 46.085C18.7523 45.3744 19.0917 44.567 19.2544 43.7157C19.5391 42.4099 19.8568 41.1104 20.1725 39.8109C20.4159 38.8015 21.0121 38.4533 21.9982 38.7373C24.0221 39.3217 25.2847 40.671 25.8293 42.6877C26.4957 45.1479 26.0666 47.5355 25.2909 49.8921C25.1918 50.1947 25.0845 50.4932 24.967 50.858C27.8758 50.858 30.6692 50.8434 33.4605 50.858C36.0104 50.8766 37.8382 52.97 37.5164 55.5048C37.4504 56.0271 37.2358 56.5287 37.0687 57.1193C37.4978 57.3598 37.927 57.8033 38.3664 57.8137C40.9266 57.8862 43.4951 57.851 46.307 57.851L46.3153 57.8572ZM9.63033 56.2406V58.052C9.63033 62.2512 9.63033 66.4524 9.64477 70.6515C9.64477 70.9375 9.76031 71.4101 9.94598 71.4805C12.566 72.5169 15.2047 73.5532 18.0826 73.5718C22.3655 73.5967 26.6463 73.5843 30.9291 73.5863C31.083 73.5909 31.2369 73.5818 31.3892 73.5594C31.7589 73.4926 32.0944 73.2996 32.3387 73.0129C32.5831 72.7262 32.7214 72.3636 32.7302 71.9863C32.7264 71.6225 32.5989 71.2711 32.3688 70.9902C32.1388 70.7093 31.8201 70.5159 31.4655 70.4422C31.1883 70.3941 30.907 70.3739 30.6259 70.3821C29.1384 70.3821 27.651 70.3821 26.1635 70.3634C26.003 70.3701 25.8428 70.3441 25.6926 70.2868C25.5424 70.2296 25.4053 70.1424 25.2896 70.0304C25.1739 69.9184 25.082 69.784 25.0194 69.6354C24.9569 69.4867 24.925 69.3268 24.9257 69.1654C24.9257 68.4939 25.3981 67.9799 26.1284 67.9053C26.3346 67.8947 26.5412 67.8947 26.7474 67.9053C29.0807 67.9053 31.4139 67.9053 33.7472 67.9053C34.103 67.914 34.4572 67.8549 34.7911 67.7312C35.1104 67.5877 35.3713 67.3389 35.5304 67.026C35.6895 66.713 35.7373 66.3549 35.6659 66.0109C35.5049 65.2523 34.9211 64.7487 34.0505 64.7383C31.744 64.7134 29.4355 64.7383 27.129 64.7238C26.7698 64.7359 26.4102 64.7262 26.0521 64.6948C25.361 64.6119 24.8989 64.0979 24.936 63.4512C24.9307 63.1498 25.0415 62.858 25.2452 62.6367C25.4489 62.4154 25.7299 62.2817 26.0294 62.2636C26.2841 62.2339 26.5406 62.2228 26.7969 62.2304H34.4115C34.6426 62.2304 34.8737 62.2304 35.1047 62.2304C36.0455 62.1538 36.6499 61.5278 36.6458 60.6428C36.6458 59.7246 36.0021 59.078 35.014 59.0718C32.2454 59.0531 29.4768 59.0718 26.7061 59.0718C26.4253 59.0871 26.1437 59.0655 25.8685 59.0075C25.2186 58.8251 24.8679 58.365 24.9463 57.6831C24.961 57.3952 25.084 57.1237 25.2905 56.9236C25.4969 56.7235 25.7714 56.6097 26.0583 56.6053C26.2873 56.5846 26.5204 56.5908 26.7515 56.5908C28.9301 56.5908 31.1107 56.5908 33.2893 56.5908C34.36 56.5908 35.047 55.996 35.1006 55.0944C35.1604 54.0705 34.4487 53.3866 33.2831 53.3845C29.8729 53.3845 26.4606 53.4052 23.0525 53.3534C22.5624 53.3059 22.1081 53.0751 21.7796 52.7067C21.4123 52.2922 21.6125 51.7554 21.9281 51.287C23.3083 49.2144 23.8137 46.9096 23.661 44.4577C23.5971 43.4214 23.298 42.4452 22.3386 41.7032C22.0643 42.7685 21.794 43.753 21.5547 44.7458C21.3273 45.7801 20.8979 46.7588 20.2912 47.6251C19.6846 48.4914 18.9128 49.2281 18.0207 49.7926C17.5916 50.0724 17.1955 50.3916 16.7458 50.6569C15.6567 51.299 14.7441 52.2037 14.0906 53.2891C13.0777 54.9162 11.7841 56.1597 9.62208 56.2343L9.63033 56.2406ZM48.4753 59.3868C48.3164 61.0304 48.4608 61.3931 49.6388 61.8076C51.3304 62.3764 52.741 63.5741 53.5813 65.1549C54.1466 66.1664 54.6479 66.3612 55.6876 65.9591C57.39 65.2669 59.2935 65.2669 60.9958 65.9591C62.0273 66.357 62.5349 66.1664 63.0589 65.2212C63.9353 63.5699 65.4139 62.3235 67.1849 61.7434C68.202 61.3869 68.4723 60.8915 68.2557 59.82C67.8738 58.042 68.1932 56.1845 69.1469 54.6384C69.7658 53.6021 69.6792 53.1337 68.7343 52.3585C67.3177 51.2254 66.3874 49.5898 66.1349 47.7884C65.9616 46.6961 65.5717 46.3707 64.4679 46.3707C62.5679 46.3707 60.9154 45.8236 59.4692 44.553C58.611 43.8007 58.0746 43.7965 57.2205 44.553C55.7764 45.8277 54.1259 46.3728 52.2197 46.3728C51.118 46.3728 50.7343 46.6775 50.5569 47.7884C50.2933 49.6148 49.3431 51.2704 47.9017 52.4145C47.0394 53.1233 46.9651 53.6166 47.5056 54.5783C48.4072 56.1867 48.9559 57.8572 48.467 59.3806L48.4753 59.3868ZM7.09693 53.9793H2.53555V74.4755H7.09693V53.9793ZM50.8333 65.4285C50.1195 66.9809 49.482 68.3654 48.795 69.8618C49.4903 69.7458 50.0329 69.6546 50.5878 69.5613C51.281 69.4411 51.7782 69.7002 52.1186 70.3157C52.3827 70.7966 52.6735 71.2629 53.0098 71.8308L54.52 68.5913C52.5869 68.3592 51.7142 66.9913 50.8292 65.4285H50.8333ZM63.6241 70.3261L63.8304 70.4774C64.4679 68.212 65.9162 67.839 67.9916 68.7778C67.3727 67.327 66.8693 66.1539 66.2958 64.8129C65.7388 65.6565 65.355 66.3943 64.8228 66.9954C64.2905 67.5965 63.5849 68.0897 62.9145 68.6659L63.6241 70.3261ZM49.8018 55.0405C49.8027 53.9134 50.0247 52.7975 50.4549 51.7566C50.8851 50.7157 51.5151 49.77 52.3091 48.9737C53.1031 48.1774 54.0454 47.546 55.0822 47.1156C56.1191 46.6851 57.2302 46.4641 58.3521 46.465C59.4739 46.466 60.5847 46.6889 61.6208 47.1211C62.6569 47.5533 63.5982 48.1863 64.3908 48.984C65.1834 49.7816 65.8119 50.7283 66.2403 51.77C66.6688 52.8117 66.8888 53.9279 66.8879 55.055C66.886 57.3313 65.9841 59.5136 64.3806 61.1218C62.7771 62.73 60.6034 63.6324 58.3376 63.6305C56.0718 63.6286 53.8997 62.7225 52.2989 61.1115C50.6981 59.5006 49.7999 57.3168 49.8018 55.0405ZM58.3737 48.9781C57.5668 48.9605 56.7645 49.1047 56.0136 49.4021C55.2628 49.6995 54.5785 50.1443 54.0006 50.7104C53.4227 51.2765 52.9629 51.9526 52.648 52.6992C52.3331 53.4458 52.1695 54.2479 52.1666 55.0588C52.1637 55.8696 52.3217 56.6729 52.6313 57.4218C52.9409 58.1706 53.3958 58.85 53.9697 59.4202C54.5435 59.9904 55.2247 60.44 55.9734 60.7428C56.7221 61.0456 57.5234 61.1955 58.3304 61.1838C59.9226 61.1605 61.442 60.5103 62.5618 59.3729C63.6816 58.2356 64.3121 56.702 64.3178 55.1023C64.3235 53.5026 63.7038 51.9645 62.5922 50.8192C61.4805 49.6738 59.9657 49.0127 58.3737 48.9781ZM56.7027 54.4229C56.1044 53.855 55.4504 53.8322 54.9264 54.3296C54.4024 54.827 54.4168 55.5732 54.98 56.1805C55.3926 56.6323 55.8362 57.0675 56.2839 57.4903C56.9626 58.1308 57.5217 58.1391 58.2375 57.5028C59.3475 56.5121 60.4478 55.5103 61.5384 54.4975C62.2295 53.857 62.3203 53.1876 61.8293 52.6114C61.3383 52.0352 60.5915 52.0435 59.8715 52.6777C59.0298 53.4259 58.2004 54.1907 57.206 55.0944C57.055 54.8573 56.8853 54.6328 56.6985 54.4229H56.7027Z" fill="black"/>
  </g>
</svg>