<svg width="80" height="77" viewBox="0 0 80 77" fill="none" xmlns="http://www.w3.org/2000/svg">
<g clip-path="url(#clip0_1283_5175)">
<path d="M40.3792 18.1387C39.0905 18.1387 37.8307 18.5211 36.7592 19.2377C35.6877 19.9543 34.8526 20.9727 34.3594 22.1643C33.8663 23.3559 33.7373 24.6671 33.9888 25.9321C34.2402 27.1971 34.8606 28.3591 35.7718 29.2711C36.6831 30.1831 37.8442 30.8042 39.1081 31.0558C40.372 31.3074 41.6821 31.1783 42.8727 30.6847C44.0633 30.1911 45.0809 29.3553 45.7969 28.2829C46.5128 27.2105 46.8949 25.9497 46.8949 24.6599C46.8908 22.9316 46.2031 21.2753 44.982 20.0532C43.761 18.8311 42.106 18.1428 40.3792 18.1387ZM40.3792 28.6408C39.5888 28.6408 38.8163 28.406 38.1593 27.9662C37.5023 27.5264 36.9905 26.9013 36.6887 26.1702C36.3869 25.439 36.3087 24.6347 36.4641 23.859C36.6194 23.0834 37.0012 22.3713 37.5612 21.8131C38.1212 21.2548 38.8341 20.8754 39.6097 20.7229C40.3853 20.5705 41.1887 20.6518 41.918 20.9567C42.6474 21.2616 43.2699 21.7762 43.7068 22.4354C44.1437 23.0947 44.3754 23.8688 44.3724 24.6599C44.3683 25.7171 43.9456 26.7296 43.1972 27.4758C42.4488 28.2219 41.4355 28.6408 40.3792 28.6408Z" fill="black"/>
<path d="M66.3338 55.0513V36.3396C66.3359 36.1701 66.304 36.002 66.2402 35.845C66.1765 35.6881 66.082 35.5455 65.9623 35.4257L53.7975 23.3281V20.6483C53.7996 16.3688 52.599 12.1749 50.333 8.5457C48.067 4.91648 44.8269 1.99824 40.9826 0.124301C40.8088 0.0405582 40.6184 -0.00292969 40.4255 -0.00292969C40.2326 -0.00292969 40.0422 0.0405582 39.8683 0.124301C36.0241 1.99824 32.7838 4.91648 30.5178 8.5457C28.2518 12.1749 27.0513 16.3688 27.0534 20.6483V23.3281L14.8886 35.4257C14.7689 35.5455 14.6743 35.6881 14.6105 35.845C14.5467 36.002 14.5151 36.1701 14.5172 36.3396V55.0513C14.5172 55.3882 14.6508 55.7112 14.8888 55.9494C15.1268 56.1876 15.4496 56.3214 15.7862 56.3214H27.0534C27.0575 57.5074 27.53 58.6437 28.368 59.4824C29.2059 60.321 30.3413 60.7939 31.5263 60.798H33.4144C32.6551 62.3671 32.2634 64.0888 32.2691 65.8322C32.2759 68.2423 33.0216 70.5922 34.4055 72.5645C35.7894 74.5368 37.7448 76.0365 40.0076 76.861C40.1505 76.8906 40.298 76.8906 40.441 76.861C40.5838 76.892 40.7316 76.892 40.8744 76.861C42.4094 76.3025 43.811 75.4293 44.9894 74.2974C46.1678 73.1655 47.097 71.7998 47.7177 70.2878C48.3383 68.7757 48.6366 67.1506 48.5935 65.5164C48.5504 63.8823 48.167 62.2752 47.4675 60.798H49.3092C50.4942 60.7939 51.6295 60.321 52.4675 59.4824C53.3054 58.6437 53.778 57.5074 53.782 56.3214H65.0647C65.4013 56.3214 65.7241 56.1876 65.9621 55.9494C66.2001 55.7112 66.3338 55.3882 66.3338 55.0513ZM27.0534 51.4886V53.7811H17.0399V36.8662L27.0534 26.9062V51.4886ZM31.5263 58.3041C31.0132 58.3041 30.5211 58.1002 30.1582 57.7371C29.7954 57.3739 29.5917 56.8814 29.5917 56.3679V52.7433H39.1563V58.3041H31.5263ZM40.4255 74.3671C38.7654 73.6528 37.3496 72.4692 36.3516 70.9614C35.3537 69.4536 34.817 67.6872 34.8074 65.8787C34.8002 64.1151 35.3056 62.3876 36.2621 60.9064H39.1563V63.3229C39.1563 63.6597 39.2901 63.9828 39.5281 64.221C39.7661 64.4592 40.0889 64.593 40.4255 64.593C40.7621 64.593 41.0849 64.4592 41.3229 64.221C41.5609 63.9828 41.6945 63.6597 41.6945 63.3229V60.9839H44.5887C45.5451 62.465 46.0507 64.1926 46.0436 65.9561C46.015 67.7566 45.4645 69.51 44.4589 71.0032C43.4533 72.4964 42.0358 73.6651 40.379 74.3671H40.4255ZM51.2593 56.3679C51.2593 56.8814 51.0555 57.3739 50.6927 57.7371C50.3299 58.1002 49.8378 58.3041 49.3247 58.3041H41.6945V52.7433H51.2593V56.3679ZM63.811 53.7811H53.7975V43.6662C53.7975 43.3294 53.6637 43.0063 53.4257 42.7681C53.1877 42.5299 52.8649 42.3961 52.5283 42.3961C52.1917 42.3961 51.8689 42.5299 51.6309 42.7681C51.3929 43.0063 51.2593 43.3294 51.2593 43.6662V50.2184H41.6945V46.8417C41.6945 46.5048 41.5609 46.1817 41.3229 45.9435C41.0849 45.7053 40.7621 45.5715 40.4255 45.5715C40.0889 45.5715 39.7661 45.7053 39.5281 45.9435C39.2901 46.1817 39.1563 46.5048 39.1563 46.8417V50.2184H29.5917V20.6483C29.5725 16.946 30.5736 13.31 32.4849 10.1401C34.3962 6.9701 37.1437 4.38889 40.4255 2.68014C43.7072 4.38889 46.4548 6.9701 48.3661 10.1401C50.2774 13.31 51.2785 16.946 51.2593 20.6483V39.3601C51.2593 39.6969 51.3929 40.02 51.6309 40.2582C51.8689 40.4964 52.1917 40.6303 52.5283 40.6303C52.8649 40.6303 53.1877 40.4964 53.4257 40.2582C53.6637 40.02 53.7975 39.6969 53.7975 39.3601V26.9682L63.811 36.9282V53.8431V53.7811Z" fill="black"/>
<path d="M69.3055 62.9044C67.8918 62.9117 66.4932 63.1959 65.1886 63.7409C64.778 62.4911 63.938 61.4276 62.8179 60.7392C61.6978 60.0508 60.3701 59.7821 59.0707 59.9809C57.7714 60.1796 56.5845 60.833 55.7211 61.8249C54.8576 62.8168 54.3735 64.0829 54.3547 65.3983C54.3547 65.7351 54.4884 66.0582 54.7264 66.2964C54.9644 66.5346 55.2872 66.6684 55.6238 66.6684C55.9603 66.6684 56.2832 66.5346 56.5212 66.2964C56.7592 66.0582 56.893 65.7351 56.893 65.3983C57.0422 64.7061 57.4238 64.0859 57.9744 63.6411C58.5249 63.1963 59.2111 62.9538 59.9186 62.9538C60.6262 62.9538 61.3123 63.1963 61.8629 63.6411C62.4134 64.0859 62.7952 64.7061 62.9445 65.3983C62.9423 66.1168 62.6905 66.8122 62.2324 67.3655C62.1236 67.4911 62.0408 67.6371 61.9889 67.795C61.9369 67.9529 61.9168 68.1196 61.9298 68.2853C61.9427 68.451 61.9886 68.6126 62.0645 68.7604C62.1403 68.9083 62.2446 69.0397 62.3717 69.1468C62.6004 69.3411 62.892 69.4457 63.192 69.4411C63.375 69.4409 63.5558 69.4005 63.7215 69.3229C63.8873 69.2453 64.034 69.1323 64.1515 68.9919C64.7654 68.2749 65.1816 67.4099 65.3588 66.4825C66.6012 65.7897 68.0029 65.4334 69.425 65.4488C70.8472 65.4642 72.2408 65.8509 73.4679 66.5706C74.695 67.2903 75.7132 68.318 76.4218 69.5522C77.1304 70.7865 77.5048 72.1844 77.5081 73.6079C77.5081 73.9447 77.6419 74.2678 77.8799 74.506C78.1179 74.7442 78.4407 74.8781 78.7773 74.8781C79.1139 74.8781 79.4367 74.7442 79.6747 74.506C79.9127 74.2678 80.0463 73.9447 80.0463 73.6079C80.0381 70.7636 78.9025 68.0389 76.8886 66.032C74.8747 64.0252 72.1474 62.9003 69.3055 62.9044Z" fill="black"/>
<path d="M24.2676 68.2637C23.7458 68.2572 23.2254 68.3197 22.7199 68.4496C22.8139 68.2898 22.8724 68.1115 22.8911 67.927C22.9098 67.7425 22.8884 67.5562 22.8284 67.3808C22.4112 66.1828 21.6766 65.1207 20.7031 64.3082C19.7296 63.4956 18.5537 62.963 17.3013 62.7674C16.0489 62.5717 14.7669 62.7203 13.5923 63.1973C12.4177 63.6743 11.3947 64.4618 10.6326 65.4755C9.91564 65.2835 9.17693 65.1846 8.43478 65.1812C6.1838 65.1894 4.0273 66.0879 2.4356 67.681C0.843904 69.274 -0.0538559 71.4323 -0.0620117 73.6851C-0.0620117 74.022 0.0717929 74.3451 0.309796 74.5833C0.547799 74.8215 0.870611 74.9553 1.2072 74.9553C1.54379 74.9553 1.8666 74.8215 2.1046 74.5833C2.3426 74.3451 2.47622 74.022 2.47622 73.6851C2.48185 72.3924 2.90593 71.1363 3.68497 70.1051C4.46402 69.0739 5.55609 68.3232 6.79735 67.9655C8.03862 67.6078 9.36219 67.6624 10.5698 68.1211C11.7775 68.5798 12.8041 69.4179 13.4958 70.5097C13.5746 70.669 13.6859 70.81 13.8226 70.9236C13.9593 71.0371 14.1184 71.1207 14.2894 71.1688C14.4604 71.217 14.6396 71.2286 14.8154 71.2031C14.9912 71.1776 15.1596 71.1154 15.3098 71.0206C15.4601 70.9258 15.5889 70.8004 15.6877 70.6527C15.7865 70.505 15.8533 70.3381 15.8836 70.1629C15.9139 69.9877 15.9072 69.8081 15.8638 69.6357C15.8203 69.4633 15.7412 69.302 15.6316 69.1621C14.9753 68.108 14.0922 67.2136 13.0469 66.5443C13.5827 66.0093 14.2451 65.6187 14.9722 65.4086C15.6994 65.1986 16.4677 65.176 17.2059 65.3429C17.9441 65.5098 18.6283 65.8609 19.1945 66.3634C19.7608 66.866 20.1909 67.5037 20.4449 68.2172C20.5065 68.401 20.6098 68.5679 20.7468 68.705C20.8837 68.842 21.0506 68.9455 21.2342 69.0072C20.1986 69.5478 19.3308 70.3621 18.7251 71.3616C18.1193 72.361 17.7989 73.5075 17.7984 74.6765C17.7984 75.0133 17.932 75.3364 18.17 75.5746C18.408 75.8128 18.7308 75.9466 19.0674 75.9466C19.404 75.9466 19.7268 75.8128 19.9648 75.5746C20.2028 75.3364 20.3366 75.0133 20.3366 74.6765C20.3366 73.6494 20.7442 72.6645 21.4698 71.9382C22.1954 71.212 23.1796 70.804 24.2058 70.804C25.232 70.804 26.2161 71.212 26.9417 71.9382C27.6673 72.6645 28.075 73.6494 28.075 74.6765C28.075 75.0133 28.2087 75.3364 28.4467 75.5746C28.6847 75.8128 29.0075 75.9466 29.3441 75.9466C29.6807 75.9466 30.0035 75.8128 30.2415 75.5746C30.4795 75.3364 30.6133 75.0133 30.6133 74.6765C30.6134 72.9864 29.9467 71.3646 28.7584 70.1637C27.5701 68.9628 25.9562 68.28 24.2676 68.2637Z" fill="black"/>
</g>
<defs>
<clipPath id="clip0_1283_5175">
<rect width="80" height="77" fill="white"/>
</clipPath>
</defs>
</svg>
